<?xml version="1.0" encoding="utf-8"?>
<!-- Generator: Adobe Illustrator 19.1.0, SVG Export Plug-In . SVG Version: 6.00 Build 0)  -->
<svg version="1.1" xmlns="http://www.w3.org/2000/svg" xmlns:xlink="http://www.w3.org/1999/xlink" x="0px" y="0px"
	 viewBox="0 0 220.78 111.595" style="enable-background:new 0 0 220.78 111.595;" xml:space="preserve">
<style type="text/css">
	.st0{opacity:0.05;fill:url(#SVGID_1_);}
	.st1{opacity:0.37;fill:url(#SVGID_2_);}
	.st2{opacity:0.58;fill:url(#SVGID_3_);}
	.st3{fill:none;stroke:#000000;stroke-width:0.25;}
	.st4{fill:none;stroke:#006699;stroke-width:0.5;}
	.st5{fill:#006699;}
	.st6{fill:#131312;}
	.st7{fill:none;stroke:#006699;stroke-width:0.5;stroke-dasharray:2,2;}
	.st8{fill:none;stroke:#131312;stroke-width:0.25;}
	.st9{fill:none;stroke:#006699;}
</style>
<g>
	<linearGradient id="SVGID_1_" gradientUnits="userSpaceOnUse" x1="54.2688" y1="90.1853" x2="23.845" y2="37.4897">
		<stop  offset="0" style="stop-color:#FFFFFF"/>
		<stop  offset="0.0788" style="stop-color:#DCDCDC"/>
		<stop  offset="0.2201" style="stop-color:#A2A2A2"/>
		<stop  offset="0.3616" style="stop-color:#717171"/>
		<stop  offset="0.5001" style="stop-color:#484848"/>
		<stop  offset="0.6351" style="stop-color:#292929"/>
		<stop  offset="0.7656" style="stop-color:#121212"/>
		<stop  offset="0.8895" style="stop-color:#050505"/>
		<stop  offset="1" style="stop-color:#000000"/>
	</linearGradient>
	<polygon class="st0" points="10.575,111.546 67.594,82.492 67.554,82.156 67.554,16.085 67.531,16.133 10.513,45.187 
		10.564,45.225 10.564,111.595 	"/>
	<linearGradient id="SVGID_2_" gradientUnits="userSpaceOnUse" x1="112.6553" y1="87.938" x2="112.6553" y2="41.6686">
		<stop  offset="0" style="stop-color:#FFFFFF"/>
		<stop  offset="0.2792" style="stop-color:#FDFEFF"/>
		<stop  offset="0.4218" style="stop-color:#F5FBFF"/>
		<stop  offset="0.5335" style="stop-color:#E8F6FF"/>
		<stop  offset="0.6292" style="stop-color:#D5EFFF"/>
		<stop  offset="0.7147" style="stop-color:#BCE6FF"/>
		<stop  offset="0.7928" style="stop-color:#9EDAFF"/>
		<stop  offset="0.8654" style="stop-color:#7ACCFF"/>
		<stop  offset="0.9327" style="stop-color:#51BDFF"/>
		<stop  offset="0.9952" style="stop-color:#23ABFF"/>
		<stop  offset="1" style="stop-color:#1FAAFF"/>
	</linearGradient>
	<path class="st1" d="M179.393,52.323c4.23,0.071,7.66,5.425,7.66,12.119c0,6.693-3.429,12.119-7.66,12.119
		c-96.707,0-125.614,10.944-141.137,11.377c9.505,0,17.21-10.353,17.21-23.125c0-12.772-7.705-23.125-17.21-23.125h0.648
		C65.029,41.193,61.467,50.344,179.393,52.323z"/>
	<linearGradient id="SVGID_3_" gradientUnits="userSpaceOnUse" x1="100.4849" y1="41.3349" x2="100.4849" y2="88.1045">
		<stop  offset="0" style="stop-color:#FFFFFF"/>
		<stop  offset="0.1957" style="stop-color:#FBFEFF"/>
		<stop  offset="0.4035" style="stop-color:#EEF9FF"/>
		<stop  offset="0.6169" style="stop-color:#D9F2FF"/>
		<stop  offset="0.8328" style="stop-color:#BBE8FF"/>
		<stop  offset="1" style="stop-color:#9FDEFF"/>
	</linearGradient>
	<path class="st2" d="M179.444,52.104c-117.927-2-114.364-11.25-140.489-10.75h-0.228c-9.506,0-17.21,10.465-17.21,23.375
		c0,12.91,7.704,23.375,17.21,23.375h-0.42c15.523-0.438,44.438-12.794,141.137-11.5h0.008c-4.231,0-7.66-5.484-7.66-12.25
		c0-6.766,3.429-12.25,7.66-12.25H179.444z"/>
	<g>
		<path d="M219.806,67.864l-0.176,0.867c-0.254,0.066-0.5,0.1-0.738,0.1c-0.422,0-0.758-0.104-1.008-0.311
			c-0.188-0.156-0.281-0.369-0.281-0.639c0-0.137,0.051-0.451,0.152-0.943l0.756-3.615h-0.838l0.17-0.82h0.838l0.322-1.529
			l1.213-0.732l-0.475,2.262h1.043l-0.176,0.82h-1.037l-0.721,3.439c-0.09,0.438-0.135,0.699-0.135,0.785
			c0,0.125,0.036,0.221,0.108,0.287s0.19,0.1,0.354,0.1C219.413,67.935,219.622,67.911,219.806,67.864z"/>
	</g>
	<g>
		<g>
			<line class="st3" x1="38.638" y1="64.61" x2="211.228" y2="64.61"/>
			<g>
				<path d="M210.33,64.61l-1.096-1.802l0.062-0.041l2.938,1.167c1.023,0.225,2.047,0.45,3.07,0.676
					c-1.023,0.225-2.047,0.45-3.07,0.676l-2.938,1.167l-0.062-0.031L210.33,64.61z"/>
			</g>
		</g>
	</g>
	<g>
		<path d="M26.005,58.043l4.102-4.342l-2.432-4.248h1.266l1.107,1.945c0.293,0.512,0.461,0.811,0.504,0.896
			c0.102,0.191,0.213,0.42,0.334,0.686c0.289-0.391,0.736-0.904,1.342-1.541l1.887-1.986h1.5l-4.154,4.436l2.355,4.154h-1.248
			l-1.395-2.514c-0.137-0.246-0.295-0.562-0.475-0.949c-0.211,0.285-0.469,0.588-0.773,0.908l-2.396,2.555H26.005z"/>
		<path d="M37.197,60.569c-0.582-0.734-1.074-1.594-1.477-2.578s-0.604-2.004-0.604-3.059c0-0.93,0.15-1.82,0.451-2.672
			c0.352-0.988,0.895-1.973,1.629-2.953h0.756c-0.473,0.812-0.785,1.393-0.938,1.74c-0.238,0.539-0.426,1.102-0.562,1.688
			c-0.168,0.73-0.252,1.465-0.252,2.203c0,1.879,0.584,3.756,1.752,5.631H37.197z"/>
		<path d="M38.884,53.807c0-1.016,0.104-1.833,0.314-2.452c0.208-0.619,0.519-1.097,0.932-1.433c0.411-0.336,0.93-0.504,1.555-0.504
			c0.461,0,0.865,0.093,1.213,0.278s0.635,0.453,0.861,0.803s0.404,0.775,0.533,1.277s0.193,1.179,0.193,2.03
			c0,1.008-0.104,1.821-0.311,2.44s-0.517,1.098-0.928,1.436c-0.413,0.338-0.934,0.507-1.562,0.507
			c-0.828,0-1.479-0.297-1.951-0.891C39.167,56.584,38.884,55.42,38.884,53.807z M39.968,53.807c0,1.41,0.165,2.349,0.496,2.815
			c0.329,0.467,0.736,0.7,1.221,0.7s0.892-0.234,1.223-0.703c0.329-0.469,0.494-1.406,0.494-2.812c0-1.414-0.165-2.354-0.494-2.818
			c-0.331-0.465-0.742-0.697-1.234-0.697c-0.484,0-0.871,0.205-1.16,0.615C40.149,51.43,39.968,52.397,39.968,53.807z"/>
		<path d="M46.542,60.569h-0.756c1.168-1.875,1.752-3.752,1.752-5.631c0-0.734-0.084-1.463-0.252-2.186
			c-0.133-0.586-0.318-1.148-0.557-1.688c-0.152-0.352-0.467-0.938-0.943-1.758h0.756c0.734,0.98,1.277,1.965,1.629,2.953
			c0.301,0.852,0.451,1.742,0.451,2.672c0,1.055-0.201,2.074-0.605,3.059S47.12,59.834,46.542,60.569z"/>
	</g>
	<g>
		<g>
			<line class="st3" x1="38.595" y1="97.631" x2="38.595" y2="35.291"/>
			<g>
				<path d="M38.595,36.188l-1.802,1.096l-0.041-0.062l1.167-2.938c0.225-1.023,0.45-2.047,0.676-3.07
					c0.225,1.023,0.45,2.047,0.676,3.07l1.167,2.938l-0.031,0.062L38.595,36.188z"/>
			</g>
		</g>
	</g>
	<g>
		<g>
			<line class="st3" x1="14.089" y1="76.534" x2="67.555" y2="50.502"/>
			<g>
				<path d="M14.896,76.141l0.197-2.099l-0.073-0.01l-2.13,2.335c-0.822,0.65-1.643,1.301-2.465,1.951
					c1.019-0.246,2.037-0.491,3.056-0.737l3.152-0.237l0.042-0.055L14.896,76.141z"/>
			</g>
		</g>
	</g>
	<path class="st4" d="M38.991,41.465c26.125-0.5,22.563,8.75,140.489,10.75"/>
	<path class="st4" d="M38.344,88.215c15.522-0.437,44.438-12.794,141.137-11.5"/>
	<circle class="st5" cx="30.866" cy="60.57" r="1.354"/>
	<circle class="st6" cx="38.638" cy="64.61" r="0.739"/>
	<path class="st4" d="M38.764,88.215c-9.505,0-17.21-10.465-17.21-23.375c0-12.91,7.705-23.375,17.21-23.375"/>
	<path class="st7" d="M38.344,41.465c9.505,0,17.21,10.465,17.21,23.375c0,12.91-7.705,23.375-17.21,23.375"/>
	<circle class="st6" cx="179.616" cy="64.527" r="0.739"/>
	<path class="st4" d="M179.488,76.715c-4.231,0-7.66-5.484-7.66-12.25c0-6.766,3.429-12.25,7.66-12.25"/>
	<path class="st4" d="M179.48,52.215c4.231,0,7.66,5.484,7.66,12.25c0,6.766-3.429,12.25-7.66,12.25"/>
	<g>
		<g>
			<path class="st5" d="M165.73,65.807c3.195-0.477,5.089-0.692,5.089-0.692"/>
			<path class="st5" d="M170.312,65.172l-1.292-1.666l0.057-0.048l3.051,0.828c1.042,0.108,2.085,0.216,3.127,0.324
				c-0.991,0.339-1.983,0.679-2.975,1.018l-2.787,1.491l-0.064-0.023L170.312,65.172z"/>
		</g>
		<g>
			<path class="st4" d="M165.73,65.807c3.195-0.477,5.089-0.692,5.089-0.692"/>
			<path class="st5" d="M170.566,65.143l-0.646-0.833l0.028-0.024l1.525,0.414c0.521,0.054,1.042,0.108,1.563,0.162
				c-0.496,0.169-0.991,0.339-1.487,0.509l-1.394,0.746l-0.032-0.012L170.566,65.143z"/>
		</g>
	</g>
	<g>
		<g>
			<line class="st6" x1="179.679" y1="64.922" x2="179.679" y2="73.255"/>
			<path class="st6" d="M179.679,72.847l1.441-0.876l0.032,0.049l-0.934,2.35c-0.18,0.819-0.359,1.638-0.54,2.457
				c-0.18-0.819-0.36-1.638-0.54-2.457l-0.934-2.35l0.024-0.049L179.679,72.847z"/>
		</g>
		<g>
			<line class="st8" x1="179.679" y1="64.922" x2="179.679" y2="73.255"/>
			<path class="st6" d="M179.679,73.153l0.36-0.219l0.008,0.013l-0.233,0.587c-0.045,0.205-0.09,0.409-0.135,0.614
				c-0.045-0.205-0.09-0.409-0.135-0.614l-0.233-0.587l0.006-0.013L179.679,73.153z"/>
		</g>
	</g>
	<g>
		<path d="M43.32,79.182l-1.389-1.277c-0.098-0.082-0.182-0.189-0.252-0.322c-0.059-0.09-0.111-0.197-0.158-0.322
			c-0.02-0.047-0.039-0.127-0.059-0.24c-0.016-0.094-0.023-0.162-0.023-0.205c0-0.27,0.107-0.494,0.322-0.674
			c0.043-0.027,0.158-0.115,0.346-0.264c0.082-0.055,0.227-0.105,0.434-0.152c0.25-0.043,0.463-0.064,0.639-0.064
			c0.09,0,0.285,0.01,0.586,0.029c0.215,0.031,0.379,0.059,0.492,0.082c0.129,0.027,0.32,0.104,0.574,0.229
			c0.227,0.117,0.402,0.244,0.527,0.381c0.121,0.145,0.182,0.309,0.182,0.492c0,0.137-0.057,0.25-0.17,0.34
			c-0.121,0.086-0.244,0.129-0.369,0.129c-0.133,0-0.27-0.043-0.41-0.129c-0.156-0.105-0.312-0.242-0.469-0.41
			c-0.059-0.059-0.101-0.103-0.126-0.132s-0.062-0.064-0.108-0.105s-0.085-0.075-0.114-0.103s-0.052-0.047-0.067-0.059
			c-0.105-0.078-0.238-0.141-0.398-0.188c-0.156-0.051-0.301-0.076-0.434-0.076c-0.172,0-0.307,0.029-0.404,0.088
			c-0.125,0.066-0.229,0.143-0.311,0.229c-0.098,0.102-0.146,0.232-0.146,0.393c0,0.09,0.023,0.182,0.07,0.275
			c0.027,0.086,0.127,0.219,0.299,0.398c0.129,0.125,0.434,0.354,0.914,0.686c0.535,0.32,0.828,0.496,0.879,0.527
			c0.109,0.07,0.328,0.234,0.656,0.492c0.281,0.246,0.51,0.514,0.686,0.803c0.172,0.285,0.305,0.572,0.398,0.861
			c0.078,0.277,0.117,0.586,0.117,0.926c0,0.391-0.068,0.764-0.205,1.119c-0.129,0.344-0.312,0.635-0.551,0.873
			c-0.266,0.25-0.498,0.438-0.697,0.562c-0.211,0.148-0.426,0.25-0.645,0.305c-0.191,0.055-0.428,0.082-0.709,0.082
			c-0.387,0-0.73-0.08-1.031-0.24c-0.293-0.145-0.537-0.328-0.732-0.551c-0.199-0.227-0.363-0.486-0.492-0.779
			c-0.152-0.316-0.229-0.678-0.229-1.084c0-0.223,0.031-0.463,0.094-0.721c0.059-0.223,0.195-0.514,0.41-0.873
			c0.199-0.34,0.584-0.66,1.154-0.961c0.105-0.043,0.234-0.096,0.387-0.158s0.275-0.112,0.369-0.149S43.305,79.186,43.32,79.182z
			 M44.773,81.28c-0.07-0.316-0.207-0.633-0.41-0.949c-0.199-0.324-0.422-0.592-0.668-0.803c-0.449,0.094-0.818,0.285-1.107,0.574
			c-0.293,0.293-0.457,0.602-0.492,0.926c-0.047,0.332-0.07,0.615-0.07,0.85c0,0.266,0.031,0.559,0.094,0.879
			c0.07,0.328,0.176,0.604,0.316,0.826c0.156,0.254,0.328,0.422,0.516,0.504c0.164,0.082,0.352,0.123,0.562,0.123
			c0.156,0,0.328-0.045,0.516-0.135c0.168-0.09,0.316-0.217,0.445-0.381c0.129-0.184,0.229-0.4,0.299-0.65
			c0.07-0.254,0.105-0.537,0.105-0.85C44.879,81.893,44.844,81.588,44.773,81.28z"/>
	</g>
	<g>
		<path d="M185.19,70.385l0.311,0.082c0,0.266-0.1,0.521-0.299,0.768c-0.207,0.266-0.506,0.457-0.896,0.574
			c-0.402,0.121-0.799,0.182-1.189,0.182c-0.344,0-0.668-0.045-0.973-0.135c-0.305-0.082-0.568-0.197-0.791-0.346
			c-0.219-0.125-0.395-0.305-0.527-0.539c-0.129-0.207-0.193-0.447-0.193-0.721c0-0.152,0.039-0.348,0.117-0.586
			c0.09-0.258,0.242-0.455,0.457-0.592c0.242-0.156,0.498-0.271,0.768-0.346c-0.586-0.266-0.918-0.49-0.996-0.674
			c-0.082-0.18-0.129-0.318-0.141-0.416c-0.023-0.09-0.035-0.174-0.035-0.252c0-0.195,0.047-0.389,0.141-0.58
			c0.102-0.199,0.27-0.387,0.504-0.562c0.219-0.172,0.5-0.305,0.844-0.398c0.309-0.078,0.641-0.117,0.996-0.117
			c0.199,0,0.383,0.012,0.551,0.035c0.184,0.027,0.336,0.068,0.457,0.123c0.117,0.051,0.24,0.113,0.369,0.188
			c0.109,0.062,0.217,0.168,0.322,0.316c0.098,0.148,0.146,0.287,0.146,0.416c0,0.121-0.027,0.221-0.082,0.299
			c-0.074,0.102-0.139,0.166-0.193,0.193c-0.07,0.047-0.162,0.07-0.275,0.07c-0.141,0-0.27-0.043-0.387-0.129
			c-0.121-0.082-0.205-0.23-0.252-0.445c-0.059-0.203-0.166-0.359-0.322-0.469c-0.164-0.109-0.352-0.164-0.562-0.164
			c-0.164,0-0.35,0.047-0.557,0.141c-0.219,0.102-0.373,0.258-0.463,0.469c-0.098,0.211-0.146,0.436-0.146,0.674
			c0,0.066,0.02,0.197,0.059,0.393c0.035,0.18,0.148,0.332,0.34,0.457c0.168,0.129,0.391,0.193,0.668,0.193
			c0.113,0,0.186-0.004,0.217-0.012l0.65-0.059c0.18,0,0.307,0.016,0.381,0.047c0.098,0.059,0.146,0.131,0.146,0.217
			c0,0.102-0.072,0.189-0.217,0.264c-0.145,0.07-0.289,0.105-0.434,0.105c-0.027,0-0.1-0.008-0.217-0.023
			c-0.039-0.008-0.075-0.014-0.108-0.018s-0.077-0.01-0.132-0.018c-0.109-0.016-0.205-0.023-0.287-0.023
			c-0.266,0-0.477,0.064-0.633,0.193c-0.156,0.117-0.27,0.277-0.34,0.48c-0.062,0.188-0.094,0.367-0.094,0.539
			c0,0.277,0.072,0.508,0.217,0.691c0.145,0.199,0.361,0.34,0.65,0.422c0.27,0.098,0.557,0.146,0.861,0.146
			c0.16,0,0.336-0.016,0.527-0.047c0.23-0.031,0.43-0.119,0.598-0.264C184.944,70.958,185.093,70.709,185.19,70.385z"/>
	</g>
	<g>
		<g>
			<line class="st6" x1="38.616" y1="65.013" x2="38.616" y2="84.846"/>
			<path class="st6" d="M38.616,84.438l1.441-0.876l0.032,0.049l-0.934,2.35c-0.18,0.819-0.359,1.638-0.54,2.456
				c-0.18-0.819-0.36-1.638-0.54-2.456l-0.933-2.35l0.024-0.049L38.616,84.438z"/>
		</g>
		<g>
			<line class="st8" x1="38.616" y1="65.013" x2="38.616" y2="84.846"/>
			<path class="st6" d="M38.616,84.744l0.36-0.219l0.008,0.013l-0.233,0.587c-0.045,0.205-0.09,0.409-0.135,0.614
				c-0.045-0.205-0.09-0.409-0.135-0.614l-0.233-0.587l0.006-0.013L38.616,84.744z"/>
		</g>
	</g>
	<g>
		<path d="M-0.006,83.002l2.707-3.158l-1.553-3.064H2.32l0.527,1.107c0.195,0.414,0.371,0.811,0.527,1.189l1.793-2.297h1.295
			L3.85,79.926l1.57,3.076H4.248l-0.621-1.266c-0.133-0.27-0.283-0.604-0.451-1.002l-1.852,2.268H-0.006z"/>
	</g>
	<g>
		<path d="M81.59,43.517l4.102-4.342l-2.432-4.248h1.266l1.107,1.945c0.293,0.512,0.461,0.811,0.504,0.896
			c0.102,0.191,0.213,0.42,0.334,0.686c0.289-0.391,0.736-0.904,1.342-1.541l1.887-1.986h1.5l-4.154,4.436l2.355,4.154h-1.248
			l-1.395-2.514c-0.137-0.246-0.295-0.562-0.475-0.949c-0.211,0.285-0.469,0.588-0.773,0.908l-2.396,2.555H81.59z"/>
		<path d="M92.781,46.042c-0.582-0.734-1.074-1.594-1.477-2.578s-0.604-2.004-0.604-3.059c0-0.93,0.15-1.82,0.451-2.672
			c0.352-0.988,0.895-1.973,1.629-2.953h0.756c-0.473,0.812-0.785,1.393-0.938,1.74c-0.238,0.539-0.426,1.102-0.562,1.688
			c-0.168,0.73-0.252,1.465-0.252,2.203c0,1.879,0.584,3.756,1.752,5.631H92.781z"/>
		<path d="M96.848,42.655l-0.176,0.867c-0.254,0.066-0.5,0.1-0.738,0.1c-0.422,0-0.758-0.104-1.008-0.311
			c-0.188-0.156-0.281-0.369-0.281-0.639c0-0.137,0.051-0.451,0.152-0.943l0.756-3.615h-0.838l0.17-0.82h0.838l0.322-1.529
			l1.213-0.732l-0.475,2.262h1.043l-0.176,0.82h-1.037l-0.721,3.439c-0.09,0.438-0.135,0.699-0.135,0.785
			c0,0.125,0.036,0.221,0.108,0.287s0.19,0.1,0.354,0.1C96.455,42.726,96.664,42.702,96.848,42.655z"/>
		<path d="M98.787,46.042h-0.756c1.168-1.875,1.752-3.752,1.752-5.631c0-0.734-0.084-1.463-0.252-2.186
			c-0.133-0.586-0.318-1.148-0.557-1.688c-0.152-0.352-0.467-0.938-0.943-1.758h0.756c0.734,0.98,1.277,1.965,1.629,2.953
			c0.301,0.852,0.451,1.742,0.451,2.672c0,1.055-0.202,2.074-0.606,3.059S99.365,45.308,98.787,46.042z"/>
	</g>
	<g>
		<path d="M8.037,85.252H7.421v-3.92c-0.148,0.141-0.342,0.283-0.583,0.424c-0.241,0.141-0.457,0.247-0.648,0.318v-0.595
			c0.344-0.162,0.645-0.358,0.902-0.588s0.44-0.454,0.547-0.67h0.396V85.252z"/>
	</g>
	<g>
		<path d="M43.632,27.737v0.591h-3.312c-0.005-0.148,0.02-0.291,0.072-0.427c0.084-0.226,0.219-0.448,0.404-0.667
			s0.454-0.472,0.805-0.759c0.545-0.447,0.913-0.8,1.104-1.062c0.191-0.261,0.287-0.507,0.287-0.74c0-0.244-0.087-0.45-0.262-0.617
			c-0.174-0.168-0.401-0.251-0.682-0.251c-0.296,0-0.533,0.089-0.711,0.267s-0.268,0.424-0.271,0.738l-0.632-0.065
			c0.043-0.472,0.206-0.831,0.489-1.078c0.282-0.248,0.661-0.371,1.138-0.371c0.48,0,0.861,0.133,1.142,0.4s0.42,0.597,0.42,0.991
			c0,0.201-0.041,0.397-0.123,0.591s-0.218,0.397-0.408,0.612s-0.506,0.508-0.948,0.882c-0.369,0.31-0.606,0.52-0.711,0.63
			c-0.104,0.111-0.191,0.222-0.26,0.333H43.632z"/>
	</g>
	<g>
		<path d="M34.036,26.252l2.707-3.158l-1.553-3.064h1.172l0.527,1.107c0.195,0.414,0.371,0.811,0.527,1.189l1.793-2.297h1.295
			l-2.613,3.146l1.57,3.076H38.29l-0.621-1.266c-0.133-0.27-0.283-0.604-0.451-1.002l-1.852,2.268H34.036z"/>
	</g>
	<path class="st9" d="M30.866,61.025C33.867,66.448,52.243,86,67.667,81.441c9.826-2.904,23.844-11.566,25.417-21.474
		c1.325-8.341-8.961-6.824-9.517-1.6c-0.964,9.074,9.917,14.568,19.321,9.617c9.403-4.952,28.472-8.911,46.418-4.715
		c16.164,3.779,20.997,1.779,20.997,1.779"/>
	<g>
		<path d="M201.354,68.872c0,2.209-0.819,3.428-2.259,3.428c-1.27,0-2.129-1.189-2.149-3.338c0-2.179,0.939-3.378,2.259-3.378
			C200.575,65.583,201.354,66.803,201.354,68.872z M197.826,68.972c0,1.689,0.52,2.648,1.319,2.648c0.899,0,1.329-1.049,1.329-2.708
			c0-1.599-0.409-2.648-1.319-2.648C198.386,66.263,197.826,67.203,197.826,68.972z"/>
	</g>
	<g>
		<g>
			<line class="st6" x1="187.554" y1="69.006" x2="193.554" y2="69.006"/>
			<path class="st6" d="M193.248,69.006l-0.657-1.081l0.036-0.024l1.763,0.7c0.614,0.135,1.229,0.27,1.843,0.405
				c-0.614,0.135-1.229,0.27-1.843,0.405l-1.763,0.7l-0.036-0.019L193.248,69.006z"/>
		</g>
		<g>
			<line class="st8" x1="187.554" y1="69.006" x2="193.554" y2="69.006"/>
			<path class="st6" d="M193.477,69.006l-0.165-0.27l0.01-0.006l0.44,0.175c0.153,0.034,0.307,0.068,0.461,0.102
				c-0.154,0.034-0.308,0.067-0.461,0.102l-0.44,0.175l-0.01-0.005L193.477,69.006z"/>
		</g>
	</g>
</g>
<g>
	<g>
		<path d="M67.994,8.579l4.058-7.158h1.128l1.182,7.158h-0.928l-0.347-2.061h-2.896l-1.147,2.061H67.994z M70.602,5.781h2.368
			l-0.278-1.797c-0.107-0.713-0.174-1.307-0.2-1.782c-0.163,0.41-0.4,0.897-0.713,1.46L70.602,5.781z"/>
		<path d="M75.279,6.807l0.884-0.054c0,0.254,0.039,0.47,0.117,0.649s0.223,0.326,0.432,0.439c0.211,0.114,0.455,0.171,0.735,0.171
			c0.391,0,0.684-0.078,0.879-0.234s0.293-0.34,0.293-0.552c0-0.153-0.059-0.298-0.176-0.435c-0.12-0.137-0.414-0.305-0.882-0.505
			c-0.467-0.2-0.766-0.341-0.896-0.422c-0.218-0.133-0.383-0.291-0.493-0.471s-0.166-0.388-0.166-0.623
			c0-0.41,0.163-0.762,0.488-1.055s0.781-0.439,1.367-0.439c0.651,0,1.146,0.15,1.486,0.452c0.341,0.301,0.518,0.697,0.53,1.189
			l-0.864,0.059c-0.013-0.312-0.124-0.56-0.332-0.742S78.18,3.96,77.799,3.96c-0.306,0-0.544,0.07-0.713,0.21
			s-0.254,0.292-0.254,0.454s0.073,0.306,0.22,0.43c0.098,0.084,0.35,0.215,0.757,0.391c0.677,0.293,1.104,0.524,1.279,0.693
			c0.28,0.27,0.42,0.599,0.42,0.986c0,0.257-0.079,0.509-0.237,0.757c-0.157,0.248-0.398,0.445-0.723,0.593
			c-0.323,0.148-0.705,0.222-1.145,0.222c-0.599,0-1.108-0.148-1.528-0.444S75.257,7.474,75.279,6.807z"/>
		<path d="M79.864,10.581l0.054-0.83c0.183,0.052,0.359,0.078,0.532,0.078c0.179,0,0.324-0.041,0.435-0.122
			c0.144-0.107,0.3-0.309,0.469-0.605l0.283-0.508l-0.864-5.2h0.869l0.391,2.622c0.078,0.518,0.145,1.035,0.2,1.553l2.319-4.175
			h0.923l-3.306,5.874c-0.319,0.573-0.603,0.952-0.85,1.138s-0.532,0.278-0.854,0.278C80.26,10.684,80.06,10.649,79.864,10.581z"/>
		<path d="M85.191,8.579l1.084-5.186h0.884l-0.181,0.854c0.329-0.368,0.622-0.622,0.882-0.762c0.258-0.14,0.539-0.21,0.842-0.21
			c0.322,0,0.592,0.085,0.809,0.256c0.216,0.171,0.358,0.409,0.427,0.715c0.264-0.326,0.541-0.569,0.833-0.73
			c0.291-0.161,0.598-0.242,0.92-0.242c0.433,0,0.758,0.103,0.975,0.308c0.216,0.205,0.324,0.493,0.324,0.864
			c0,0.16-0.037,0.423-0.112,0.791l-0.698,3.34h-0.884l0.713-3.428c0.062-0.28,0.093-0.48,0.093-0.601
			c0-0.169-0.054-0.303-0.161-0.4s-0.259-0.146-0.454-0.146c-0.264,0-0.532,0.08-0.806,0.239s-0.485,0.369-0.638,0.627
			c-0.15,0.259-0.283,0.657-0.397,1.194l-0.527,2.515h-0.884l0.732-3.501c0.052-0.238,0.078-0.407,0.078-0.508
			c0-0.169-0.053-0.306-0.158-0.41c-0.106-0.104-0.244-0.156-0.413-0.156c-0.251,0-0.514,0.08-0.788,0.239
			c-0.275,0.16-0.499,0.382-0.672,0.667s-0.314,0.691-0.425,1.218l-0.513,2.451H85.191z"/>
		<path d="M93.092,10.566l1.499-7.173h0.815l-0.151,0.723c0.303-0.316,0.574-0.535,0.812-0.657c0.24-0.122,0.493-0.183,0.76-0.183
			c0.495,0,0.905,0.18,1.23,0.54s0.488,0.875,0.488,1.545c0,0.541-0.09,1.033-0.269,1.477S97.879,7.64,97.618,7.91
			s-0.524,0.469-0.791,0.596s-0.54,0.19-0.82,0.19c-0.622,0-1.104-0.316-1.445-0.947l-0.586,2.817H93.092z M94.84,6.46
			c0,0.387,0.027,0.656,0.083,0.806c0.081,0.211,0.215,0.382,0.4,0.513s0.4,0.195,0.645,0.195c0.508,0,0.918-0.286,1.23-0.857
			s0.469-1.155,0.469-1.75c0-0.439-0.105-0.779-0.314-1.018c-0.211-0.239-0.472-0.359-0.784-0.359c-0.225,0-0.433,0.06-0.625,0.178
			s-0.37,0.296-0.534,0.532c-0.165,0.236-0.301,0.525-0.408,0.867S94.84,6.206,94.84,6.46z"/>
		<path d="M101.153,7.861l-0.146,0.723c-0.212,0.055-0.417,0.083-0.615,0.083c-0.352,0-0.632-0.086-0.84-0.259
			c-0.156-0.13-0.234-0.308-0.234-0.532c0-0.114,0.042-0.376,0.127-0.786l0.63-3.013h-0.698l0.142-0.684h0.698l0.269-1.274
			l1.011-0.61L101.1,3.394h0.869l-0.146,0.684h-0.864l-0.601,2.866c-0.075,0.365-0.112,0.583-0.112,0.654
			c0,0.104,0.03,0.184,0.09,0.239c0.061,0.055,0.159,0.083,0.296,0.083C100.826,7.92,101,7.9,101.153,7.861z"/>
		<path d="M102.022,6.611c0-1.012,0.298-1.851,0.894-2.515c0.491-0.547,1.136-0.82,1.934-0.82c0.625,0,1.129,0.195,1.511,0.586
			c0.383,0.391,0.574,0.918,0.574,1.582c0,0.596-0.12,1.15-0.361,1.663s-0.584,0.906-1.027,1.179
			c-0.445,0.273-0.913,0.41-1.404,0.41c-0.403,0-0.771-0.086-1.102-0.259c-0.33-0.172-0.582-0.417-0.756-0.732
			C102.109,7.389,102.022,7.025,102.022,6.611z M102.906,6.523c0,0.488,0.117,0.858,0.352,1.111s0.532,0.378,0.894,0.378
			c0.188,0,0.376-0.038,0.562-0.115s0.358-0.193,0.518-0.349s0.296-0.334,0.407-0.535c0.113-0.2,0.203-0.416,0.271-0.647
			c0.101-0.322,0.151-0.631,0.151-0.928c0-0.469-0.118-0.833-0.354-1.091c-0.235-0.259-0.532-0.388-0.891-0.388
			c-0.276,0-0.529,0.066-0.757,0.198s-0.434,0.325-0.618,0.579c-0.184,0.254-0.318,0.549-0.404,0.886
			C102.949,5.959,102.906,6.26,102.906,6.523z"/>
		<path d="M109.493,7.861l-0.146,0.723c-0.212,0.055-0.417,0.083-0.615,0.083c-0.352,0-0.632-0.086-0.84-0.259
			c-0.156-0.13-0.234-0.308-0.234-0.532c0-0.114,0.042-0.376,0.127-0.786l0.63-3.013h-0.698l0.142-0.684h0.698l0.269-1.274
			l1.011-0.61l-0.396,1.885h0.869l-0.146,0.684h-0.864l-0.601,2.866c-0.075,0.365-0.112,0.583-0.112,0.654
			c0,0.104,0.03,0.184,0.09,0.239c0.061,0.055,0.159,0.083,0.296,0.083C109.166,7.92,109.34,7.9,109.493,7.861z"/>
		<path d="M110.172,8.579l1.084-5.186h0.884l-1.084,5.186H110.172z M111.461,2.422l0.21-1.001h0.879l-0.21,1.001H111.461z"/>
		<path d="M116.007,6.689l0.884,0.093c-0.222,0.648-0.536,1.129-0.944,1.443c-0.409,0.314-0.874,0.471-1.395,0.471
			c-0.563,0-1.02-0.182-1.369-0.547c-0.351-0.365-0.525-0.874-0.525-1.528c0-0.566,0.112-1.123,0.337-1.67s0.546-0.963,0.964-1.248
			c0.419-0.285,0.896-0.427,1.434-0.427c0.557,0,0.998,0.157,1.323,0.471s0.488,0.73,0.488,1.248l-0.869,0.059
			c-0.003-0.329-0.099-0.586-0.286-0.771c-0.187-0.186-0.434-0.278-0.739-0.278c-0.354,0-0.662,0.112-0.923,0.337
			s-0.465,0.565-0.613,1.023c-0.147,0.458-0.222,0.897-0.222,1.321c0,0.443,0.098,0.775,0.293,0.996s0.437,0.332,0.723,0.332
			s0.561-0.109,0.823-0.327C115.651,7.467,115.857,7.135,116.007,6.689z"/>
		<path d="M120.289,6.807l0.884-0.054c0,0.254,0.039,0.47,0.117,0.649s0.223,0.326,0.432,0.439c0.211,0.114,0.455,0.171,0.735,0.171
			c0.391,0,0.684-0.078,0.879-0.234s0.293-0.34,0.293-0.552c0-0.153-0.059-0.298-0.176-0.435c-0.12-0.137-0.414-0.305-0.882-0.505
			c-0.467-0.2-0.766-0.341-0.896-0.422c-0.218-0.133-0.383-0.291-0.493-0.471s-0.166-0.388-0.166-0.623
			c0-0.41,0.163-0.762,0.488-1.055s0.781-0.439,1.367-0.439c0.651,0,1.146,0.15,1.486,0.452c0.341,0.301,0.518,0.697,0.53,1.189
			l-0.864,0.059c-0.013-0.312-0.124-0.56-0.332-0.742s-0.503-0.273-0.884-0.273c-0.306,0-0.544,0.07-0.713,0.21
			s-0.254,0.292-0.254,0.454s0.073,0.306,0.22,0.43c0.098,0.084,0.35,0.215,0.757,0.391c0.677,0.293,1.104,0.524,1.279,0.693
			c0.28,0.27,0.42,0.599,0.42,0.986c0,0.257-0.079,0.509-0.237,0.757c-0.157,0.248-0.398,0.445-0.723,0.593
			c-0.323,0.148-0.705,0.222-1.145,0.222c-0.599,0-1.108-0.148-1.528-0.444S120.267,7.474,120.289,6.807z"/>
		<path d="M127.271,7.861l-0.146,0.723c-0.212,0.055-0.417,0.083-0.615,0.083c-0.352,0-0.632-0.086-0.84-0.259
			c-0.156-0.13-0.234-0.308-0.234-0.532c0-0.114,0.042-0.376,0.127-0.786l0.63-3.013h-0.698l0.142-0.684h0.698l0.269-1.274
			l1.011-0.61l-0.396,1.885h0.869l-0.146,0.684h-0.864l-0.601,2.866c-0.075,0.365-0.112,0.583-0.112,0.654
			c0,0.104,0.03,0.184,0.091,0.239c0.06,0.055,0.158,0.083,0.295,0.083C126.944,7.92,127.118,7.9,127.271,7.861z"/>
		<path d="M131.48,7.935c-0.306,0.264-0.601,0.457-0.884,0.579s-0.586,0.183-0.908,0.183c-0.479,0-0.864-0.141-1.157-0.422
			s-0.439-0.642-0.439-1.082c0-0.29,0.065-0.546,0.198-0.769c0.131-0.223,0.307-0.402,0.524-0.537s0.485-0.232,0.801-0.291
			c0.198-0.039,0.575-0.07,1.13-0.093c0.556-0.023,0.953-0.082,1.194-0.176c0.068-0.241,0.103-0.441,0.103-0.601
			c0-0.205-0.075-0.366-0.225-0.483c-0.205-0.163-0.505-0.244-0.898-0.244c-0.371,0-0.675,0.082-0.91,0.247
			c-0.236,0.165-0.408,0.398-0.516,0.701L128.6,4.868c0.183-0.514,0.472-0.908,0.866-1.182c0.396-0.273,0.895-0.41,1.497-0.41
			c0.642,0,1.149,0.153,1.523,0.459c0.286,0.228,0.43,0.524,0.43,0.889c0,0.277-0.041,0.597-0.122,0.962l-0.288,1.289
			c-0.091,0.41-0.137,0.744-0.137,1.001c0,0.163,0.036,0.397,0.107,0.703h-0.894C131.534,8.41,131.5,8.195,131.48,7.935z
			 M131.808,5.952c-0.124,0.049-0.256,0.086-0.398,0.112c-0.141,0.026-0.378,0.054-0.71,0.083c-0.515,0.045-0.877,0.104-1.089,0.173
			s-0.371,0.182-0.479,0.334s-0.161,0.322-0.161,0.508c0,0.248,0.085,0.451,0.257,0.61c0.17,0.16,0.414,0.239,0.729,0.239
			c0.293,0,0.574-0.077,0.845-0.232s0.483-0.37,0.64-0.647S131.72,6.463,131.808,5.952z"/>
		<path d="M133.546,8.579l1.494-7.158h0.884l-0.532,2.559c0.28-0.257,0.534-0.438,0.762-0.544s0.466-0.159,0.713-0.159
			c0.485,0,0.89,0.181,1.213,0.542c0.324,0.361,0.486,0.887,0.486,1.577c0,0.459-0.065,0.879-0.195,1.26s-0.291,0.701-0.483,0.959
			s-0.391,0.465-0.596,0.62s-0.415,0.27-0.63,0.347s-0.422,0.115-0.62,0.115c-0.342,0-0.643-0.09-0.903-0.271
			s-0.464-0.457-0.61-0.828l-0.205,0.981H133.546z M134.854,6.45l-0.005,0.166c0,0.443,0.105,0.78,0.317,1.011
			s0.476,0.347,0.791,0.347c0.31,0,0.594-0.108,0.852-0.325c0.26-0.216,0.472-0.554,0.638-1.013s0.249-0.882,0.249-1.27
			c0-0.436-0.105-0.775-0.314-1.016c-0.211-0.241-0.47-0.361-0.779-0.361c-0.319,0-0.612,0.123-0.879,0.369s-0.49,0.624-0.669,1.135
			C134.921,5.874,134.854,6.193,134.854,6.45z"/>
		<path d="M139.073,8.579l1.084-5.186h0.884l-1.084,5.186H139.073z M140.362,2.422l0.21-1.001h0.879l-0.21,1.001H140.362z"/>
		<path d="M141.261,8.579l1.494-7.158h0.884l-1.494,7.158H141.261z"/>
		<path d="M143.517,8.579l1.084-5.186h0.884L144.4,8.579H143.517z M144.806,2.422l0.21-1.001h0.879l-0.21,1.001H144.806z"/>
		<path d="M147.838,7.861l-0.146,0.723c-0.212,0.055-0.417,0.083-0.615,0.083c-0.352,0-0.632-0.086-0.84-0.259
			c-0.156-0.13-0.234-0.308-0.234-0.532c0-0.114,0.042-0.376,0.127-0.786l0.63-3.013h-0.698l0.142-0.684h0.698l0.269-1.274
			l1.011-0.61l-0.396,1.885h0.869l-0.146,0.684h-0.864l-0.601,2.866c-0.075,0.365-0.112,0.583-0.112,0.654
			c0,0.104,0.03,0.184,0.091,0.239c0.06,0.055,0.158,0.083,0.295,0.083C147.511,7.92,147.685,7.9,147.838,7.861z"/>
		<path d="M148.219,10.581l0.054-0.83c0.183,0.052,0.359,0.078,0.532,0.078c0.179,0,0.324-0.041,0.435-0.122
			c0.144-0.107,0.3-0.309,0.469-0.605l0.283-0.508l-0.864-5.2h0.869l0.391,2.622c0.078,0.518,0.145,1.035,0.2,1.553l2.319-4.175
			h0.923l-3.306,5.874c-0.319,0.573-0.603,0.952-0.85,1.138s-0.532,0.278-0.854,0.278C148.614,10.684,148.414,10.649,148.219,10.581
			z"/>
	</g>
	<g>
	</g>
</g>
</svg>
