<?xml version="1.0" encoding="utf-8"?>
<!-- Generator: Adobe Illustrator 19.1.0, SVG Export Plug-In . SVG Version: 6.00 Build 0)  -->
<svg version="1.1" xmlns="http://www.w3.org/2000/svg" xmlns:xlink="http://www.w3.org/1999/xlink" x="0px" y="0px"
	 viewBox="0 0 224.541 116.674" style="enable-background:new 0 0 224.541 116.674;" xml:space="preserve">
<style type="text/css">
	.st0{opacity:0.05;fill:url(#SVGID_1_);}
	.st1{opacity:0.38;fill:url(#SVGID_2_);}
	.st2{opacity:0.58;fill:url(#SVGID_3_);}
	.st3{fill:none;stroke:#000000;stroke-width:0.25;}
	.st4{fill:none;stroke:#006699;stroke-width:0.5;}
	.st5{fill:#006699;}
	.st6{fill:#131312;}
	.st7{fill:none;stroke:#006699;stroke-width:0.5;stroke-dasharray:2,2;}
	.st8{fill:none;stroke:#131312;stroke-width:0.25;}
	.st9{fill:none;stroke:#006699;}
</style>
<g>
	<linearGradient id="SVGID_1_" gradientUnits="userSpaceOnUse" x1="55.1933" y1="94.8991" x2="24.2514" y2="41.3062">
		<stop  offset="0" style="stop-color:#FFFFFF"/>
		<stop  offset="0.0788" style="stop-color:#DCDCDC"/>
		<stop  offset="0.2201" style="stop-color:#A2A2A2"/>
		<stop  offset="0.3616" style="stop-color:#717171"/>
		<stop  offset="0.5001" style="stop-color:#484848"/>
		<stop  offset="0.6351" style="stop-color:#292929"/>
		<stop  offset="0.7656" style="stop-color:#121212"/>
		<stop  offset="0.8895" style="stop-color:#050505"/>
		<stop  offset="1" style="stop-color:#000000"/>
	</linearGradient>
	<polygon class="st0" points="10.755,116.624 68.745,87.075 68.705,86.733 68.705,19.538 68.681,19.586 10.692,49.135 
		10.744,49.173 10.744,116.674 	"/>
	<linearGradient id="SVGID_2_" gradientUnits="userSpaceOnUse" x1="111.1621" y1="92.3492" x2="111.1621" y2="45.1556">
		<stop  offset="0" style="stop-color:#FFFFFF"/>
		<stop  offset="0.2792" style="stop-color:#FDFEFF"/>
		<stop  offset="0.4218" style="stop-color:#F5FBFF"/>
		<stop  offset="0.5335" style="stop-color:#E8F6FF"/>
		<stop  offset="0.6292" style="stop-color:#D5EFFF"/>
		<stop  offset="0.7147" style="stop-color:#BCE6FF"/>
		<stop  offset="0.7928" style="stop-color:#9EDAFF"/>
		<stop  offset="0.8654" style="stop-color:#7ACCFF"/>
		<stop  offset="0.9327" style="stop-color:#51BDFF"/>
		<stop  offset="0.9952" style="stop-color:#23ABFF"/>
		<stop  offset="1" style="stop-color:#1FAAFF"/>
	</linearGradient>
	<path class="st1" d="M178.521,61.125c2.616,0.066,4.737,3.365,4.737,7.516c0,4.151-2.12,7.517-4.737,7.517
		c-95.564,0-124.118,15.576-139.455,16.192c9.666,0,17.503-10.558,17.503-23.582c0-13.025-7.837-23.582-17.503-23.582h0.658
		C65.534,44.443,62.015,58.159,178.521,61.125z"/>
	<linearGradient id="SVGID_3_" gradientUnits="userSpaceOnUse" x1="100.2754" y1="45.1554" x2="100.2754" y2="92.7305">
		<stop  offset="0" style="stop-color:#FFFFFF"/>
		<stop  offset="0.2792" style="stop-color:#FDFEFF"/>
		<stop  offset="0.4218" style="stop-color:#F5FBFF"/>
		<stop  offset="0.5335" style="stop-color:#E8F6FF"/>
		<stop  offset="0.6292" style="stop-color:#D5EFFF"/>
		<stop  offset="0.7147" style="stop-color:#BCE6FF"/>
		<stop  offset="0.7928" style="stop-color:#9EDAFF"/>
		<stop  offset="0.8654" style="stop-color:#7ACCFF"/>
		<stop  offset="0.9327" style="stop-color:#51BDFF"/>
		<stop  offset="0.9952" style="stop-color:#23ABFF"/>
		<stop  offset="1" style="stop-color:#1FAAFF"/>
	</linearGradient>
	<path class="st2" d="M178.539,61.254C62.033,58.264,65.552,44.437,39.742,45.185H39.51c-9.667,0-17.503,10.643-17.503,23.773
		c0,13.13,7.836,23.773,17.503,23.773h-0.427c15.338-0.621,43.909-18.16,139.455-16.323h0.005c-2.617,0-4.738-3.392-4.738-7.577
		c0-4.184,2.121-7.576,4.738-7.576H178.539z"/>
	<g>
		<path d="M223.548,72.198l-0.179,0.882c-0.258,0.067-0.509,0.102-0.751,0.102c-0.429,0-0.771-0.105-1.024-0.316
			c-0.191-0.159-0.286-0.375-0.286-0.649c0-0.139,0.052-0.459,0.154-0.959l0.77-3.677h-0.853l0.173-0.834h0.853l0.327-1.555
			l1.233-0.745l-0.482,2.3h1.061l-0.179,0.834h-1.055l-0.732,3.498c-0.092,0.445-0.138,0.711-0.138,0.798
			c0,0.127,0.037,0.225,0.11,0.292s0.193,0.101,0.36,0.101C223.149,72.27,223.362,72.246,223.548,72.198z"/>
	</g>
	<g>
		<g>
			<line class="st3" x1="39.295" y1="68.889" x2="214.894" y2="68.889"/>
			<g>
				<path d="M213.997,68.889l-1.096-1.802l0.062-0.041l2.938,1.167c1.023,0.225,2.047,0.45,3.07,0.676
					c-1.023,0.225-2.047,0.45-3.07,0.676l-2.938,1.167l-0.062-0.031L213.997,68.889z"/>
			</g>
		</g>
	</g>
	<g>
		<path d="M26.194,62.337l4.171-4.416l-2.473-4.321h1.287l1.126,1.979c0.298,0.521,0.469,0.825,0.512,0.912
			c0.104,0.194,0.217,0.427,0.34,0.697c0.294-0.397,0.749-0.919,1.365-1.567l1.918-2.021h1.526l-4.225,4.511l2.396,4.225h-1.269
			l-1.418-2.557c-0.139-0.25-0.3-0.572-0.483-0.965c-0.214,0.29-0.477,0.598-0.787,0.924l-2.437,2.598H26.194z"/>
		<path d="M37.576,64.906c-0.592-0.747-1.093-1.621-1.502-2.622s-0.614-2.038-0.614-3.11c0-0.946,0.153-1.852,0.459-2.718
			c0.357-1.005,0.91-2.006,1.657-3.003h0.769c-0.48,0.827-0.798,1.417-0.953,1.77c-0.243,0.548-0.433,1.12-0.572,1.716
			c-0.171,0.743-0.256,1.49-0.256,2.241c0,1.911,0.594,3.82,1.782,5.727H37.576z"/>
		<path d="M39.292,58.029c0-1.033,0.106-1.864,0.318-2.494c0.213-0.63,0.528-1.115,0.948-1.457c0.419-0.342,0.946-0.513,1.582-0.513
			c0.469,0,0.88,0.095,1.233,0.283c0.354,0.189,0.646,0.461,0.876,0.816s0.411,0.789,0.542,1.299
			c0.131,0.51,0.197,1.199,0.197,2.064c0,1.025-0.105,1.853-0.316,2.482c-0.211,0.63-0.525,1.117-0.944,1.46
			c-0.419,0.344-0.948,0.516-1.588,0.516c-0.843,0-1.504-0.302-1.984-0.906C39.581,60.854,39.292,59.67,39.292,58.029z
			 M40.395,58.029c0,1.435,0.168,2.389,0.503,2.863c0.336,0.475,0.75,0.712,1.243,0.712c0.492,0,0.906-0.238,1.242-0.715
			c0.336-0.477,0.504-1.43,0.504-2.86c0-1.438-0.168-2.394-0.504-2.866s-0.754-0.709-1.255-0.709c-0.492,0-0.886,0.208-1.18,0.625
			C40.58,55.612,40.395,56.595,40.395,58.029z"/>
		<path d="M47.081,64.906h-0.769c1.188-1.907,1.782-3.816,1.782-5.727c0-0.747-0.086-1.488-0.257-2.223
			c-0.135-0.596-0.323-1.168-0.565-1.716c-0.155-0.358-0.476-0.954-0.96-1.788h0.769c0.747,0.998,1.3,1.999,1.657,3.003
			c0.306,0.866,0.459,1.772,0.459,2.718c0,1.072-0.206,2.109-0.617,3.11S47.668,64.159,47.081,64.906z"/>
	</g>
	<g>
		<g>
			<line class="st3" x1="39.252" y1="102.472" x2="39.252" y2="39.001"/>
			<g>
				<path d="M39.252,39.898l-1.802,1.096l-0.041-0.062l1.167-2.938c0.225-1.023,0.45-2.047,0.676-3.07
					c0.225,1.023,0.45,2.047,0.676,3.07l1.167,2.938l-0.031,0.062L39.252,39.898z"/>
			</g>
		</g>
	</g>
	<g>
		<g>
			<line class="st3" x1="14.266" y1="81.046" x2="68.706" y2="54.54"/>
			<g>
				<path d="M15.073,80.653l0.197-2.099l-0.073-0.01l-2.13,2.335c-0.822,0.65-1.643,1.301-2.465,1.951
					c1.019-0.246,2.037-0.491,3.056-0.737l3.152-0.237l0.042-0.055L15.073,80.653z"/>
			</g>
		</g>
	</g>
	<path class="st4" d="M39.656,45.349c25.81-0.747,22.291,13.08,138.797,16.069"/>
	<path class="st4" d="M38.997,92.895c15.338-0.621,43.909-18.159,139.456-16.323"/>
	<circle class="st5" cx="42.516" cy="48.781" r="1.377"/>
	<circle class="st6" cx="39.296" cy="68.888" r="0.752"/>
	<path class="st4" d="M39.424,92.895c-9.668,0-17.503-10.643-17.503-23.773s7.836-23.773,17.503-23.773"/>
	<path class="st7" d="M38.997,45.349c9.667,0,17.503,10.643,17.503,23.773s-7.836,23.773-17.503,23.773"/>
	<circle class="st6" cx="178.627" cy="68.825" r="0.752"/>
	<path class="st4" d="M178.456,76.572c-2.617,0-4.737-3.393-4.737-7.577c0-4.185,2.12-7.577,4.737-7.577"/>
	<path class="st4" d="M178.453,61.418c2.617,0,4.737,3.392,4.737,7.577c0,4.185-2.12,7.577-4.737,7.577"/>
	<g>
		<g>
			<path class="st5" d="M167.257,68.896c3.284-0.084,5.224-0.065,5.224-0.065"/>
			<path class="st5" d="M171.971,68.826l-1.078-1.812l0.062-0.04l2.927,1.195c1.021,0.235,2.042,0.47,3.064,0.705
				c-1.025,0.215-2.051,0.43-3.077,0.646l-2.948,1.139l-0.061-0.032L171.971,68.826z"/>
		</g>
		<g>
			<path class="st4" d="M167.257,68.896c3.284-0.084,5.224-0.065,5.224-0.065"/>
			<path class="st5" d="M172.226,68.829l-0.539-0.906l0.031-0.02l1.463,0.598c0.511,0.117,1.021,0.235,1.532,0.353
				c-0.514,0.107-1.026,0.215-1.539,0.323l-1.474,0.569l-0.031-0.016L172.226,68.829z"/>
		</g>
	</g>
	<g>
		<g>
			<line class="st6" x1="178.585" y1="69.121" x2="178.585" y2="73.02"/>
			<path class="st6" d="M178.585,72.611l1.441-0.876l0.032,0.049l-0.934,2.35c-0.18,0.819-0.359,1.638-0.54,2.457
				c-0.18-0.819-0.36-1.638-0.54-2.457l-0.934-2.35l0.024-0.049L178.585,72.611z"/>
		</g>
		<g>
			<line class="st8" x1="178.585" y1="69.121" x2="178.585" y2="73.02"/>
			<path class="st6" d="M178.585,72.917l0.36-0.219l0.008,0.013l-0.233,0.587c-0.045,0.205-0.09,0.409-0.135,0.614
				c-0.045-0.205-0.09-0.409-0.135-0.614l-0.233-0.587l0.006-0.013L178.585,72.917z"/>
		</g>
	</g>
	<g>
		<path d="M46.566,77.111l-1.412-1.299c-0.1-0.083-0.185-0.193-0.256-0.328c-0.06-0.091-0.113-0.2-0.161-0.328
			c-0.02-0.048-0.04-0.129-0.06-0.244c-0.016-0.096-0.023-0.165-0.023-0.208c0-0.274,0.108-0.503,0.327-0.686
			c0.044-0.028,0.161-0.117,0.352-0.268c0.084-0.056,0.23-0.107,0.441-0.155c0.254-0.044,0.471-0.066,0.649-0.066
			c0.091,0,0.29,0.01,0.596,0.03c0.219,0.032,0.386,0.06,0.501,0.083c0.131,0.028,0.325,0.105,0.584,0.232
			c0.23,0.119,0.409,0.249,0.536,0.387c0.123,0.147,0.185,0.314,0.185,0.501c0,0.139-0.058,0.254-0.173,0.345
			c-0.123,0.087-0.248,0.131-0.375,0.131c-0.136,0-0.274-0.044-0.418-0.131c-0.158-0.107-0.317-0.246-0.477-0.417
			c-0.06-0.06-0.102-0.104-0.128-0.134c-0.025-0.03-0.062-0.066-0.11-0.107c-0.048-0.042-0.086-0.077-0.116-0.104
			c-0.029-0.028-0.053-0.047-0.068-0.06c-0.107-0.079-0.242-0.143-0.405-0.19c-0.159-0.052-0.306-0.078-0.44-0.078
			c-0.176,0-0.312,0.03-0.411,0.089c-0.128,0.068-0.232,0.145-0.316,0.232c-0.1,0.104-0.148,0.236-0.148,0.399
			c0,0.091,0.023,0.185,0.071,0.28c0.027,0.087,0.129,0.223,0.304,0.405c0.131,0.127,0.441,0.36,0.93,0.697
			c0.544,0.326,0.842,0.505,0.894,0.537c0.111,0.071,0.334,0.238,0.668,0.5c0.286,0.25,0.519,0.522,0.697,0.816
			c0.175,0.29,0.31,0.582,0.405,0.876c0.079,0.282,0.119,0.596,0.119,0.941c0,0.397-0.07,0.777-0.209,1.138
			c-0.131,0.35-0.317,0.646-0.561,0.888c-0.27,0.254-0.506,0.445-0.709,0.572c-0.214,0.151-0.433,0.254-0.655,0.31
			c-0.194,0.056-0.435,0.083-0.721,0.083c-0.394,0-0.743-0.082-1.049-0.245c-0.298-0.147-0.547-0.333-0.745-0.56
			c-0.203-0.23-0.369-0.495-0.501-0.792c-0.154-0.322-0.232-0.689-0.232-1.103c0-0.227,0.032-0.471,0.096-0.733
			c0.06-0.227,0.198-0.522,0.417-0.888c0.203-0.345,0.594-0.671,1.174-0.977c0.107-0.043,0.238-0.097,0.394-0.161
			c0.155-0.063,0.28-0.114,0.375-0.152C46.495,77.136,46.55,77.115,46.566,77.111z M48.044,79.244
			c-0.072-0.322-0.211-0.644-0.417-0.965c-0.203-0.33-0.43-0.602-0.68-0.816c-0.457,0.095-0.832,0.29-1.126,0.584
			c-0.299,0.298-0.465,0.612-0.501,0.941c-0.048,0.338-0.071,0.626-0.071,0.864c0,0.27,0.031,0.568,0.095,0.894
			c0.072,0.333,0.179,0.614,0.322,0.84c0.159,0.258,0.334,0.429,0.524,0.513c0.167,0.083,0.357,0.125,0.572,0.125
			c0.158,0,0.333-0.045,0.524-0.137c0.171-0.091,0.321-0.221,0.452-0.388c0.132-0.187,0.232-0.407,0.305-0.661
			c0.071-0.258,0.106-0.546,0.106-0.864C48.151,79.868,48.116,79.558,48.044,79.244z"/>
	</g>
	<g>
		<path d="M189.345,74.677l0.315,0.083c0,0.271-0.101,0.53-0.304,0.781c-0.211,0.27-0.515,0.465-0.912,0.584
			c-0.409,0.123-0.812,0.185-1.209,0.185c-0.35,0-0.68-0.045-0.989-0.137c-0.311-0.083-0.578-0.201-0.805-0.352
			c-0.223-0.127-0.401-0.31-0.536-0.548c-0.131-0.21-0.197-0.455-0.197-0.733c0-0.155,0.04-0.354,0.119-0.596
			c0.092-0.262,0.247-0.462,0.465-0.602c0.247-0.159,0.507-0.276,0.781-0.352c-0.596-0.271-0.934-0.499-1.014-0.686
			c-0.083-0.183-0.131-0.324-0.143-0.423c-0.023-0.091-0.036-0.177-0.036-0.256c0-0.199,0.048-0.396,0.144-0.59
			c0.104-0.203,0.274-0.394,0.513-0.572c0.222-0.175,0.508-0.31,0.857-0.405c0.314-0.08,0.651-0.119,1.014-0.119
			c0.202,0,0.389,0.012,0.56,0.036c0.187,0.028,0.342,0.07,0.465,0.125c0.119,0.052,0.244,0.116,0.376,0.191
			c0.111,0.063,0.22,0.171,0.327,0.322c0.1,0.151,0.149,0.292,0.149,0.423c0,0.123-0.028,0.224-0.084,0.304
			c-0.075,0.104-0.141,0.169-0.196,0.197c-0.071,0.047-0.165,0.071-0.28,0.071c-0.143,0-0.273-0.043-0.394-0.131
			c-0.123-0.083-0.208-0.234-0.256-0.453c-0.06-0.207-0.169-0.365-0.328-0.477c-0.166-0.111-0.357-0.167-0.571-0.167
			c-0.167,0-0.355,0.048-0.566,0.143c-0.223,0.104-0.38,0.262-0.471,0.477c-0.1,0.215-0.149,0.443-0.149,0.686
			c0,0.067,0.021,0.201,0.06,0.399c0.036,0.183,0.151,0.337,0.346,0.464c0.171,0.131,0.397,0.197,0.68,0.197
			c0.115,0,0.188-0.004,0.221-0.012l0.661-0.06c0.183,0,0.312,0.016,0.388,0.047c0.099,0.06,0.148,0.133,0.148,0.221
			c0,0.104-0.073,0.193-0.221,0.268c-0.146,0.072-0.294,0.107-0.44,0.107c-0.028,0-0.102-0.008-0.221-0.024
			c-0.04-0.008-0.076-0.014-0.11-0.018c-0.033-0.004-0.078-0.01-0.134-0.018c-0.111-0.016-0.209-0.024-0.292-0.024
			c-0.271,0-0.484,0.065-0.644,0.197c-0.159,0.119-0.274,0.282-0.346,0.488c-0.063,0.191-0.096,0.374-0.096,0.548
			c0,0.282,0.074,0.517,0.221,0.703c0.147,0.203,0.367,0.346,0.661,0.429c0.274,0.1,0.566,0.149,0.876,0.149
			c0.163,0,0.342-0.016,0.537-0.047c0.234-0.032,0.437-0.122,0.607-0.269C189.095,75.259,189.246,75.007,189.345,74.677z"/>
	</g>
	<g>
		<g>
			<line class="st6" x1="39.274" y1="69.298" x2="39.274" y2="89.469"/>
			<path class="st6" d="M39.274,89.061l1.441-0.876l0.032,0.049l-0.934,2.35c-0.18,0.819-0.359,1.638-0.54,2.456
				c-0.18-0.819-0.36-1.638-0.54-2.456l-0.934-2.35l0.024-0.049L39.274,89.061z"/>
		</g>
		<g>
			<line class="st8" x1="39.274" y1="69.298" x2="39.274" y2="89.469"/>
			<path class="st6" d="M39.274,89.367l0.36-0.219l0.008,0.013l-0.233,0.587c-0.045,0.205-0.09,0.409-0.135,0.614
				c-0.045-0.205-0.09-0.409-0.135-0.614l-0.233-0.587l0.006-0.013L39.274,89.367z"/>
		</g>
	</g>
	<g>
		<path d="M-0.006,87.594l2.753-3.212l-1.579-3.117H2.36l0.537,1.126c0.199,0.421,0.377,0.824,0.536,1.209l1.824-2.336h1.317
			l-2.658,3.2l1.597,3.128H4.321l-0.632-1.287c-0.135-0.274-0.288-0.614-0.459-1.019l-1.883,2.306H-0.006z"/>
	</g>
	<g>
		<path d="M97.98,48.58l4.172-4.416l-2.474-4.321h1.288l1.126,1.979c0.298,0.521,0.469,0.825,0.513,0.912
			c0.103,0.194,0.216,0.427,0.339,0.697c0.294-0.397,0.749-0.919,1.365-1.567l1.919-2.021h1.525l-4.226,4.511l2.396,4.225h-1.27
			l-1.419-2.557c-0.139-0.25-0.3-0.572-0.482-0.965c-0.214,0.29-0.477,0.598-0.786,0.924L99.53,48.58H97.98z"/>
		<path d="M109.362,51.148c-0.592-0.747-1.092-1.621-1.501-2.622s-0.614-2.038-0.614-3.11c0-0.946,0.153-1.852,0.459-2.718
			c0.357-1.005,0.91-2.006,1.656-3.003h0.77c-0.481,0.827-0.799,1.417-0.954,1.77c-0.242,0.548-0.433,1.12-0.572,1.716
			c-0.17,0.743-0.256,1.49-0.256,2.241c0,1.911,0.594,3.82,1.782,5.727H109.362z"/>
		<path d="M113.498,47.704l-0.179,0.882c-0.258,0.067-0.509,0.102-0.751,0.102c-0.429,0-0.771-0.105-1.024-0.316
			c-0.19-0.159-0.286-0.375-0.286-0.649c0-0.139,0.052-0.459,0.155-0.959l0.769-3.677h-0.853l0.173-0.834h0.853l0.327-1.555
			l1.233-0.745l-0.482,2.3h1.061l-0.179,0.834h-1.055l-0.732,3.498c-0.092,0.445-0.138,0.711-0.138,0.798
			c0,0.127,0.037,0.225,0.11,0.292s0.194,0.101,0.36,0.101C113.098,47.775,113.311,47.752,113.498,47.704z"/>
		<path d="M115.47,51.148h-0.769c1.188-1.907,1.782-3.816,1.782-5.727c0-0.747-0.086-1.488-0.257-2.223
			c-0.135-0.596-0.323-1.168-0.566-1.716c-0.154-0.358-0.475-0.954-0.959-1.788h0.769c0.747,0.998,1.299,1.999,1.657,3.003
			c0.306,0.866,0.458,1.772,0.458,2.718c0,1.072-0.205,2.109-0.616,3.11S116.058,50.401,115.47,51.148z"/>
	</g>
	<g>
		<path d="M8.174,89.882H7.548v-3.987c-0.15,0.144-0.348,0.288-0.592,0.431c-0.245,0.144-0.464,0.251-0.659,0.323v-0.605
			c0.35-0.165,0.656-0.364,0.917-0.598s0.447-0.461,0.556-0.681h0.403V89.882z"/>
	</g>
	<g>
		<path d="M44.375,31.387v0.602h-3.368c-0.005-0.15,0.02-0.295,0.072-0.435c0.086-0.229,0.224-0.456,0.412-0.678
			c0.189-0.223,0.462-0.48,0.819-0.772c0.554-0.454,0.928-0.814,1.122-1.079c0.195-0.266,0.292-0.516,0.292-0.752
			c0-0.248-0.088-0.458-0.266-0.627c-0.178-0.17-0.408-0.256-0.693-0.256c-0.302,0-0.542,0.09-0.724,0.271
			c-0.181,0.181-0.271,0.431-0.274,0.75l-0.643-0.066c0.044-0.479,0.209-0.845,0.497-1.097c0.287-0.251,0.673-0.377,1.157-0.377
			c0.489,0,0.876,0.135,1.161,0.406c0.285,0.271,0.428,0.607,0.428,1.008c0,0.204-0.042,0.404-0.125,0.602
			c-0.084,0.197-0.223,0.404-0.416,0.622s-0.515,0.517-0.964,0.897c-0.376,0.315-0.617,0.529-0.724,0.641
			c-0.106,0.113-0.194,0.226-0.264,0.339H44.375z"/>
	</g>
	<g>
		<path d="M34.616,29.877l2.753-3.212l-1.579-3.117h1.191l0.537,1.126c0.199,0.421,0.377,0.824,0.536,1.209l1.823-2.336h1.317
			l-2.658,3.2l1.597,3.128h-1.192l-0.631-1.287c-0.135-0.274-0.288-0.614-0.459-1.019l-1.883,2.306H34.616z"/>
	</g>
	<g>
		<path d="M205.281,73.134c0,2.249-0.834,3.491-2.3,3.491c-1.293,0-2.168-1.211-2.188-3.399c0-2.218,0.957-3.44,2.301-3.44
			C204.487,69.786,205.281,71.027,205.281,73.134z M201.688,73.236c0,1.72,0.529,2.697,1.344,2.697c0.916,0,1.354-1.069,1.354-2.758
			c0-1.628-0.417-2.697-1.344-2.697C202.258,70.478,201.688,71.435,201.688,73.236z"/>
	</g>
	<g>
		<g>
			<line class="st6" x1="190.985" y1="73.36" x2="197.086" y2="73.36"/>
			<path class="st6" d="M196.781,73.36l-0.657-1.081l0.036-0.024l1.763,0.7c0.614,0.135,1.229,0.27,1.843,0.405
				c-0.614,0.135-1.229,0.27-1.843,0.405l-1.763,0.7l-0.036-0.019L196.781,73.36z"/>
		</g>
		<g>
			<line class="st8" x1="190.985" y1="73.36" x2="197.086" y2="73.36"/>
			<path class="st6" d="M197.01,73.36l-0.165-0.27l0.01-0.006l0.44,0.175c0.153,0.034,0.308,0.067,0.461,0.101
				c-0.153,0.034-0.308,0.067-0.461,0.102l-0.44,0.175l-0.01-0.004L197.01,73.36z"/>
		</g>
	</g>
	<path class="st9" d="M42.516,48.782c18.561,13.603,65.299,19.959,129.671,19.959"/>
</g>
<g>
	<g>
		<path d="M66.251,9.579l1.499-7.158h5.166l-0.171,0.815h-4.209l-0.469,2.227h4.102l-0.171,0.815h-4.102l-0.518,2.49h4.507
			l-0.171,0.811H66.251z"/>
		<path d="M72.458,9.579l2.256-2.632l-1.294-2.554h0.977l0.439,0.923c0.163,0.345,0.31,0.675,0.439,0.991l1.494-1.914h1.079
			L75.67,7.016l1.309,2.563h-0.977l-0.518-1.055c-0.11-0.225-0.236-0.503-0.376-0.835l-1.543,1.89H72.458z"/>
		<path d="M77.37,11.566l1.499-7.173h0.815l-0.151,0.723c0.303-0.316,0.574-0.535,0.812-0.657c0.24-0.122,0.493-0.183,0.76-0.183
			c0.495,0,0.905,0.18,1.23,0.54s0.488,0.875,0.488,1.545c0,0.541-0.09,1.033-0.269,1.477S82.157,8.64,81.896,8.91
			s-0.524,0.469-0.791,0.596s-0.54,0.19-0.82,0.19c-0.622,0-1.104-0.316-1.445-0.947l-0.586,2.817H77.37z M79.118,7.46
			c0,0.387,0.027,0.656,0.083,0.806c0.081,0.211,0.215,0.382,0.4,0.513s0.4,0.195,0.645,0.195c0.508,0,0.918-0.286,1.23-0.857
			s0.469-1.155,0.469-1.75c0-0.439-0.105-0.779-0.314-1.018c-0.211-0.239-0.472-0.359-0.784-0.359c-0.225,0-0.433,0.06-0.625,0.178
			s-0.37,0.296-0.534,0.532c-0.165,0.236-0.301,0.525-0.408,0.867S79.118,7.206,79.118,7.46z"/>
		<path d="M83.522,7.611c0-1.012,0.298-1.851,0.894-2.515c0.491-0.547,1.136-0.82,1.934-0.82c0.625,0,1.129,0.195,1.512,0.586
			c0.382,0.391,0.573,0.918,0.573,1.582c0,0.596-0.12,1.15-0.361,1.663s-0.583,0.906-1.028,1.179
			c-0.443,0.273-0.912,0.41-1.403,0.41c-0.403,0-0.771-0.086-1.101-0.259c-0.331-0.172-0.583-0.417-0.758-0.732
			C83.609,8.389,83.522,8.025,83.522,7.611z M84.406,7.523c0,0.488,0.117,0.858,0.352,1.111s0.532,0.378,0.894,0.378
			c0.188,0,0.376-0.038,0.562-0.115s0.358-0.193,0.518-0.349s0.295-0.334,0.408-0.535c0.111-0.2,0.202-0.416,0.271-0.647
			c0.101-0.322,0.151-0.631,0.151-0.928c0-0.469-0.118-0.833-0.354-1.091C86.97,5.089,86.673,4.96,86.315,4.96
			c-0.276,0-0.529,0.066-0.757,0.198s-0.434,0.325-0.617,0.579c-0.185,0.254-0.319,0.549-0.406,0.886
			C84.449,6.959,84.406,7.26,84.406,7.523z"/>
		<path d="M88.927,9.579l1.084-5.186h0.801l-0.19,0.903c0.349-0.355,0.674-0.614,0.977-0.776s0.612-0.244,0.928-0.244
			c0.42,0,0.749,0.114,0.989,0.342c0.238,0.228,0.358,0.532,0.358,0.913c0,0.192-0.042,0.495-0.127,0.908l-0.659,3.14h-0.884
			l0.688-3.286c0.068-0.319,0.103-0.555,0.103-0.708c0-0.172-0.06-0.312-0.179-0.42c-0.118-0.107-0.29-0.161-0.515-0.161
			c-0.452,0-0.855,0.163-1.208,0.488c-0.354,0.326-0.613,0.884-0.779,1.675l-0.503,2.412H88.927z"/>
		<path d="M98.297,7.816l0.859,0.088c-0.124,0.426-0.407,0.832-0.853,1.216c-0.443,0.384-0.974,0.576-1.589,0.576
			c-0.384,0-0.736-0.089-1.058-0.266c-0.32-0.177-0.564-0.436-0.732-0.774c-0.167-0.338-0.251-0.724-0.251-1.157
			c0-0.566,0.131-1.116,0.394-1.648c0.262-0.532,0.601-0.928,1.018-1.187s0.867-0.388,1.353-0.388c0.618,0,1.112,0.192,1.481,0.576
			c0.37,0.384,0.555,0.908,0.555,1.572c0,0.254-0.022,0.514-0.068,0.781h-3.818c-0.013,0.101-0.02,0.192-0.02,0.273
			c0,0.485,0.111,0.855,0.334,1.111c0.224,0.255,0.496,0.383,0.818,0.383c0.303,0,0.601-0.099,0.894-0.298
			S98.134,8.191,98.297,7.816z M95.729,6.532h2.91c0.003-0.091,0.005-0.156,0.005-0.195c0-0.443-0.11-0.782-0.332-1.018
			s-0.506-0.354-0.854-0.354c-0.378,0-0.722,0.13-1.032,0.391C96.114,5.616,95.882,6.008,95.729,6.532z"/>
		<path d="M100.05,9.579l1.084-5.186h0.801l-0.19,0.903c0.349-0.355,0.674-0.614,0.977-0.776s0.612-0.244,0.928-0.244
			c0.42,0,0.749,0.114,0.989,0.342c0.238,0.228,0.358,0.532,0.358,0.913c0,0.192-0.042,0.495-0.127,0.908l-0.659,3.14h-0.884
			l0.688-3.286c0.068-0.319,0.103-0.555,0.103-0.708c0-0.172-0.06-0.312-0.179-0.42c-0.118-0.107-0.29-0.161-0.515-0.161
			c-0.452,0-0.855,0.163-1.208,0.488c-0.354,0.326-0.613,0.884-0.779,1.675l-0.503,2.412H100.05z"/>
		<path d="M107.677,8.861l-0.146,0.723c-0.212,0.055-0.417,0.083-0.615,0.083c-0.352,0-0.632-0.086-0.84-0.259
			c-0.156-0.13-0.234-0.308-0.234-0.532c0-0.114,0.042-0.376,0.127-0.786l0.63-3.013H105.9l0.142-0.684h0.698l0.269-1.274
			l1.011-0.61l-0.396,1.885h0.869l-0.146,0.684h-0.864l-0.601,2.866c-0.075,0.365-0.112,0.583-0.112,0.654
			c0,0.104,0.03,0.184,0.09,0.239c0.061,0.055,0.159,0.083,0.296,0.083C107.35,8.92,107.524,8.9,107.677,8.861z"/>
		<path d="M108.356,9.579l1.084-5.186h0.884l-1.084,5.186H108.356z M109.645,3.422l0.21-1.001h0.879l-0.21,1.001H109.645z"/>
		<path d="M114.108,8.935c-0.306,0.264-0.601,0.457-0.884,0.579s-0.586,0.183-0.908,0.183c-0.479,0-0.864-0.141-1.157-0.422
			s-0.439-0.642-0.439-1.082c0-0.29,0.065-0.546,0.198-0.769c0.131-0.223,0.307-0.402,0.524-0.537s0.485-0.232,0.801-0.291
			c0.198-0.039,0.575-0.07,1.13-0.093c0.556-0.023,0.953-0.082,1.194-0.176c0.068-0.241,0.103-0.441,0.103-0.601
			c0-0.205-0.075-0.366-0.225-0.483c-0.205-0.163-0.505-0.244-0.898-0.244c-0.371,0-0.675,0.082-0.91,0.247
			c-0.236,0.165-0.408,0.398-0.516,0.701l-0.894-0.078c0.183-0.514,0.472-0.908,0.866-1.182c0.396-0.273,0.895-0.41,1.497-0.41
			c0.642,0,1.149,0.153,1.523,0.459c0.286,0.228,0.43,0.524,0.43,0.889c0,0.277-0.041,0.597-0.122,0.962l-0.288,1.289
			c-0.091,0.41-0.137,0.744-0.137,1.001c0,0.163,0.036,0.397,0.107,0.703h-0.894C114.162,9.41,114.127,9.195,114.108,8.935z
			 M114.435,6.952c-0.124,0.049-0.256,0.086-0.398,0.112c-0.141,0.026-0.378,0.054-0.71,0.083c-0.515,0.045-0.877,0.104-1.089,0.173
			s-0.371,0.182-0.479,0.334s-0.161,0.322-0.161,0.508c0,0.248,0.085,0.451,0.257,0.61c0.17,0.16,0.414,0.239,0.729,0.239
			c0.293,0,0.574-0.077,0.845-0.232s0.483-0.37,0.64-0.647S114.347,7.463,114.435,6.952z"/>
		<path d="M116.105,9.579l1.494-7.158h0.884l-1.494,7.158H116.105z"/>
		<path d="M121.256,7.807l0.884-0.054c0,0.254,0.039,0.47,0.117,0.649s0.223,0.326,0.432,0.439c0.211,0.114,0.455,0.171,0.735,0.171
			c0.391,0,0.684-0.078,0.879-0.234s0.293-0.34,0.293-0.552c0-0.153-0.059-0.298-0.176-0.435c-0.12-0.137-0.414-0.305-0.882-0.505
			c-0.467-0.2-0.766-0.341-0.896-0.422c-0.218-0.133-0.383-0.291-0.493-0.471s-0.166-0.388-0.166-0.623
			c0-0.41,0.163-0.762,0.488-1.055s0.781-0.439,1.367-0.439c0.651,0,1.146,0.15,1.486,0.452c0.341,0.301,0.518,0.697,0.53,1.189
			l-0.864,0.059c-0.013-0.312-0.124-0.56-0.332-0.742s-0.503-0.273-0.884-0.273c-0.306,0-0.544,0.07-0.713,0.21
			s-0.254,0.292-0.254,0.454s0.073,0.306,0.22,0.43c0.098,0.084,0.35,0.215,0.757,0.391c0.677,0.293,1.104,0.524,1.279,0.693
			c0.28,0.27,0.42,0.599,0.42,0.986c0,0.257-0.079,0.509-0.237,0.757c-0.157,0.248-0.398,0.445-0.723,0.593
			c-0.323,0.148-0.705,0.222-1.145,0.222c-0.599,0-1.108-0.148-1.528-0.444S121.234,8.474,121.256,7.807z"/>
		<path d="M128.239,8.861l-0.146,0.723c-0.212,0.055-0.417,0.083-0.615,0.083c-0.352,0-0.632-0.086-0.84-0.259
			c-0.156-0.13-0.234-0.308-0.234-0.532c0-0.114,0.042-0.376,0.127-0.786l0.63-3.013h-0.698l0.142-0.684h0.698l0.269-1.274
			l1.011-0.61l-0.396,1.885h0.869l-0.146,0.684h-0.864l-0.601,2.866c-0.075,0.365-0.112,0.583-0.112,0.654
			c0,0.104,0.03,0.184,0.091,0.239c0.06,0.055,0.158,0.083,0.295,0.083C127.912,8.92,128.085,8.9,128.239,8.861z"/>
		<path d="M132.448,8.935c-0.306,0.264-0.601,0.457-0.884,0.579s-0.586,0.183-0.908,0.183c-0.479,0-0.864-0.141-1.157-0.422
			s-0.439-0.642-0.439-1.082c0-0.29,0.065-0.546,0.198-0.769c0.131-0.223,0.307-0.402,0.524-0.537s0.485-0.232,0.801-0.291
			c0.198-0.039,0.575-0.07,1.13-0.093c0.556-0.023,0.953-0.082,1.194-0.176c0.068-0.241,0.103-0.441,0.103-0.601
			c0-0.205-0.075-0.366-0.225-0.483c-0.205-0.163-0.505-0.244-0.898-0.244c-0.371,0-0.675,0.082-0.91,0.247
			c-0.236,0.165-0.408,0.398-0.516,0.701l-0.894-0.078c0.183-0.514,0.472-0.908,0.866-1.182c0.396-0.273,0.895-0.41,1.497-0.41
			c0.642,0,1.149,0.153,1.523,0.459c0.286,0.228,0.43,0.524,0.43,0.889c0,0.277-0.041,0.597-0.122,0.962l-0.288,1.289
			c-0.091,0.41-0.137,0.744-0.137,1.001c0,0.163,0.036,0.397,0.107,0.703h-0.894C132.501,9.41,132.467,9.195,132.448,8.935z
			 M132.775,6.952c-0.124,0.049-0.256,0.086-0.398,0.112c-0.141,0.026-0.378,0.054-0.71,0.083c-0.515,0.045-0.877,0.104-1.089,0.173
			s-0.371,0.182-0.479,0.334s-0.161,0.322-0.161,0.508c0,0.248,0.085,0.451,0.257,0.61c0.17,0.16,0.414,0.239,0.729,0.239
			c0.293,0,0.574-0.077,0.845-0.232s0.483-0.37,0.64-0.647S132.687,7.463,132.775,6.952z"/>
		<path d="M134.513,9.579l1.494-7.158h0.884l-0.532,2.559c0.28-0.257,0.534-0.438,0.762-0.544s0.466-0.159,0.713-0.159
			c0.485,0,0.89,0.181,1.213,0.542c0.324,0.361,0.486,0.887,0.486,1.577c0,0.459-0.065,0.879-0.195,1.26s-0.291,0.701-0.483,0.959
			s-0.391,0.465-0.596,0.62s-0.415,0.27-0.63,0.347s-0.422,0.115-0.62,0.115c-0.342,0-0.643-0.09-0.903-0.271
			s-0.464-0.457-0.61-0.828l-0.205,0.981H134.513z M135.822,7.45l-0.005,0.166c0,0.443,0.105,0.78,0.317,1.011
			s0.476,0.347,0.791,0.347c0.31,0,0.594-0.108,0.852-0.325c0.26-0.216,0.472-0.554,0.638-1.013s0.249-0.882,0.249-1.27
			c0-0.436-0.105-0.775-0.314-1.016c-0.211-0.241-0.47-0.361-0.779-0.361c-0.319,0-0.612,0.123-0.879,0.369s-0.49,0.624-0.669,1.135
			C135.888,6.874,135.822,7.193,135.822,7.45z"/>
		<path d="M140.041,9.579l1.084-5.186h0.884l-1.084,5.186H140.041z M141.33,3.422l0.21-1.001h0.879l-0.21,1.001H141.33z"/>
		<path d="M142.228,9.579l1.494-7.158h0.884l-1.494,7.158H142.228z"/>
		<path d="M144.484,9.579l1.084-5.186h0.884l-1.084,5.186H144.484z M145.773,3.422l0.21-1.001h0.879l-0.21,1.001H145.773z"/>
		<path d="M148.805,8.861l-0.146,0.723c-0.212,0.055-0.417,0.083-0.615,0.083c-0.352,0-0.632-0.086-0.84-0.259
			c-0.156-0.13-0.234-0.308-0.234-0.532c0-0.114,0.042-0.376,0.127-0.786l0.63-3.013h-0.698l0.142-0.684h0.698l0.269-1.274
			l1.011-0.61l-0.396,1.885h0.869l-0.146,0.684h-0.864l-0.601,2.866c-0.075,0.365-0.112,0.583-0.112,0.654
			c0,0.104,0.03,0.184,0.091,0.239c0.06,0.055,0.158,0.083,0.295,0.083C148.478,8.92,148.652,8.9,148.805,8.861z"/>
		<path d="M149.186,11.581l0.054-0.83c0.183,0.052,0.359,0.078,0.532,0.078c0.179,0,0.324-0.041,0.435-0.122
			c0.144-0.107,0.3-0.309,0.469-0.605l0.283-0.508l-0.864-5.2h0.869l0.391,2.622c0.078,0.518,0.145,1.035,0.2,1.553l2.319-4.175
			h0.923l-3.306,5.874c-0.319,0.573-0.603,0.952-0.85,1.138s-0.532,0.278-0.854,0.278C149.582,11.684,149.381,11.649,149.186,11.581
			z"/>
	</g>
	<g>
	</g>
</g>
</svg>
