<?xml version="1.0" encoding="utf-8"?>
<!-- Generator: Adobe Illustrator 19.1.0, SVG Export Plug-In . SVG Version: 6.00 Build 0)  -->
<svg version="1.1" xmlns="http://www.w3.org/2000/svg" xmlns:xlink="http://www.w3.org/1999/xlink" x="0px" y="0px"
	 viewBox="0 0 217.53 113.845" style="enable-background:new 0 0 217.53 113.845;" xml:space="preserve">
<style type="text/css">
	.st0{opacity:0.05;fill:url(#SVGID_1_);}
	.st1{opacity:0.36;fill:url(#SVGID_2_);}
	.st2{opacity:0.57;fill:url(#SVGID_3_);}
	.st3{fill:none;stroke:#000000;stroke-width:0.25;}
	.st4{fill:none;stroke:#006699;stroke-width:0.5;}
	.st5{fill:none;stroke:#006699;}
	.st6{fill:#006699;}
	.st7{fill:#131312;}
	.st8{fill:none;stroke:#006699;stroke-width:0.5;stroke-dasharray:2,2;}
	.st9{fill:none;stroke:#131312;stroke-width:0.25;}
</style>
<g>
	<linearGradient id="SVGID_1_" gradientUnits="userSpaceOnUse" x1="53.7688" y1="92.4353" x2="23.345" y2="39.7397">
		<stop  offset="0" style="stop-color:#FFFFFF"/>
		<stop  offset="0.0074" style="stop-color:#F6F6F6"/>
		<stop  offset="0.0477" style="stop-color:#C8C8C8"/>
		<stop  offset="0.0931" style="stop-color:#9D9D9D"/>
		<stop  offset="0.1419" style="stop-color:#777777"/>
		<stop  offset="0.195" style="stop-color:#575757"/>
		<stop  offset="0.2537" style="stop-color:#3B3B3B"/>
		<stop  offset="0.32" style="stop-color:#252525"/>
		<stop  offset="0.3974" style="stop-color:#141414"/>
		<stop  offset="0.4931" style="stop-color:#090909"/>
		<stop  offset="0.6274" style="stop-color:#020202"/>
		<stop  offset="1" style="stop-color:#000000"/>
	</linearGradient>
	<polygon class="st0" points="10.075,113.796 67.094,84.742 67.054,84.406 67.054,18.335 67.031,18.383 10.013,47.437 
		10.064,47.475 10.064,113.845 	"/>
	<linearGradient id="SVGID_2_" gradientUnits="userSpaceOnUse" x1="115.8843" y1="89.9648" x2="115.8843" y2="42.2148">
		<stop  offset="0" style="stop-color:#FFFFFF"/>
		<stop  offset="0.2792" style="stop-color:#FDFEFF"/>
		<stop  offset="0.4218" style="stop-color:#F5FBFF"/>
		<stop  offset="0.5335" style="stop-color:#E8F6FF"/>
		<stop  offset="0.6292" style="stop-color:#D5EFFF"/>
		<stop  offset="0.7147" style="stop-color:#BCE6FF"/>
		<stop  offset="0.7928" style="stop-color:#9EDAFF"/>
		<stop  offset="0.8654" style="stop-color:#7ACCFF"/>
		<stop  offset="0.9327" style="stop-color:#51BDFF"/>
		<stop  offset="0.9952" style="stop-color:#23ABFF"/>
		<stop  offset="1" style="stop-color:#1FAAFF"/>
	</linearGradient>
	<path class="st1" d="M38.913,81.837c7.625,1.835,78.782,8.128,139.013,8.128h-0.037c8.582,0,15.537-10.689,15.537-23.875
		s-6.955-23.875-15.537-23.875l-0.132,0.001c-60.404,0-131.768,6.435-139.414,8.312l1.208-0.125c5.661,0,10.25,7.051,10.25,15.75
		s-4.589,15.75-10.25,15.75L38.913,81.837z"/>
	<linearGradient id="SVGID_3_" gradientUnits="userSpaceOnUse" x1="103.7705" y1="42.2564" x2="103.7705" y2="90.0064">
		<stop  offset="0" style="stop-color:#FFFFFF"/>
		<stop  offset="0.1957" style="stop-color:#FBFEFF"/>
		<stop  offset="0.4035" style="stop-color:#EEF9FF"/>
		<stop  offset="0.6169" style="stop-color:#D9F2FF"/>
		<stop  offset="0.8328" style="stop-color:#BBE8FF"/>
		<stop  offset="1" style="stop-color:#9FDEFF"/>
	</linearGradient>
	<path class="st2" d="M38.375,50.569c7.646-1.877,79.01-8.311,139.415-8.311l0.144-0.001c-8.582,0-15.537,10.689-15.537,23.875
		s6.955,23.875,15.537,23.875h0.025c-60.23,0-131.389-6.293-139.013-8.128l0.888,0.065c-5.661,0-10.25-7.051-10.25-15.75
		c0-8.699,4.589-15.75,10.25-15.75L38.375,50.569z"/>
	<g>
		<path d="M216.556,68.614l-0.176,0.867c-0.254,0.066-0.5,0.1-0.738,0.1c-0.422,0-0.758-0.104-1.008-0.311
			c-0.188-0.156-0.281-0.369-0.281-0.639c0-0.137,0.051-0.451,0.152-0.943l0.756-3.615h-0.838l0.17-0.82h0.838l0.322-1.529
			l1.213-0.732l-0.475,2.262h1.043l-0.176,0.82h-1.037l-0.721,3.439c-0.09,0.438-0.135,0.699-0.135,0.785
			c0,0.125,0.036,0.221,0.108,0.287s0.19,0.1,0.354,0.1C216.163,68.685,216.372,68.661,216.556,68.614z"/>
	</g>
	<g>
		<g>
			<line class="st3" x1="40.137" y1="65.798" x2="206.728" y2="65.798"/>
			<g>
				<path d="M205.83,65.798l-1.096-1.802l0.062-0.041l2.938,1.167c1.023,0.225,2.047,0.45,3.07,0.676
					c-1.023,0.225-2.047,0.45-3.07,0.676l-2.938,1.167l-0.062-0.031L205.83,65.798z"/>
			</g>
		</g>
	</g>
	<g>
		<path d="M9.922,54.96l4.102-4.342l-2.432-4.248h1.266l1.107,1.945c0.293,0.512,0.461,0.811,0.504,0.896
			c0.102,0.191,0.213,0.42,0.334,0.686c0.289-0.391,0.736-0.904,1.342-1.541l1.887-1.986h1.5l-4.154,4.436l2.355,4.154h-1.248
			l-1.395-2.514c-0.137-0.246-0.295-0.562-0.475-0.949c-0.211,0.285-0.469,0.588-0.773,0.908l-2.396,2.555H9.922z"/>
		<path d="M21.114,57.485c-0.582-0.734-1.074-1.594-1.477-2.578s-0.604-2.004-0.604-3.059c0-0.93,0.15-1.82,0.451-2.672
			c0.352-0.988,0.895-1.973,1.629-2.953h0.756c-0.473,0.812-0.785,1.393-0.938,1.74c-0.238,0.539-0.426,1.102-0.562,1.688
			c-0.168,0.73-0.252,1.465-0.252,2.203c0,1.879,0.584,3.756,1.752,5.631H21.114z"/>
		<path d="M22.801,50.724c0-1.016,0.104-1.833,0.313-2.452s0.52-1.097,0.932-1.433s0.931-0.504,1.556-0.504
			c0.461,0,0.865,0.093,1.213,0.278s0.635,0.453,0.861,0.803s0.404,0.775,0.533,1.277s0.193,1.179,0.193,2.03
			c0,1.008-0.104,1.821-0.311,2.44s-0.517,1.098-0.929,1.436s-0.933,0.507-1.562,0.507c-0.828,0-1.479-0.297-1.951-0.891
			C23.084,53.501,22.801,52.337,22.801,50.724z M23.885,50.724c0,1.41,0.165,2.349,0.495,2.815s0.737,0.7,1.222,0.7
			s0.892-0.234,1.222-0.703s0.495-1.406,0.495-2.812c0-1.414-0.165-2.354-0.495-2.818s-0.741-0.697-1.233-0.697
			c-0.484,0-0.871,0.205-1.16,0.615C24.067,48.347,23.885,49.313,23.885,50.724z"/>
		<path d="M30.459,57.485h-0.756c1.168-1.875,1.752-3.752,1.752-5.631c0-0.734-0.084-1.463-0.252-2.186
			c-0.133-0.586-0.318-1.148-0.557-1.688c-0.152-0.352-0.467-0.938-0.943-1.758h0.756c0.734,0.98,1.277,1.965,1.629,2.953
			c0.301,0.852,0.451,1.742,0.451,2.672c0,1.055-0.202,2.074-0.606,3.059S31.038,56.751,30.459,57.485z"/>
	</g>
	<g>
		<g>
			<line class="st3" x1="39.845" y1="98.631" x2="39.845" y2="36.291"/>
			<g>
				<path d="M39.845,37.188l-1.802,1.096l-0.041-0.062l1.167-2.938c0.225-1.023,0.45-2.047,0.676-3.07
					c0.225,1.023,0.45,2.047,0.676,3.07l1.167,2.938l-0.031,0.062L39.845,37.188z"/>
			</g>
		</g>
	</g>
	<g>
		<g>
			<line class="st3" x1="13.633" y1="78.712" x2="67.017" y2="52.72"/>
			<g>
				<path d="M14.44,78.319l0.197-2.099l-0.073-0.01l-2.13,2.335c-0.822,0.65-1.643,1.301-2.465,1.951
					c1.019-0.246,2.037-0.491,3.056-0.737l3.152-0.237l0.042-0.055L14.44,78.319z"/>
			</g>
		</g>
	</g>
	<path class="st4" d="M38.345,50.59c7.646-1.877,79.01-8.311,139.415-8.311"/>
	<path class="st4" d="M38.916,81.899c7.625,1.835,78.782,8.128,139.013,8.128"/>
	<path class="st5" d="M38.096,57.84c6.25,0.25,17.958,15.375,35.458,15.625s28.75-24.25,53.25-26.75s54.25,5.5,54.25,5.5"/>
	<circle class="st6" cx="38.096" cy="57.839" r="1.354"/>
	<circle class="st7" cx="39.804" cy="65.839" r="0.739"/>
	<path class="st4" d="M39.804,81.965c-5.661,0-10.25-7.051-10.25-15.75c0-8.699,4.589-15.75,10.25-15.75"/>
	<path class="st8" d="M39.554,50.465c5.661,0,10.25,7.051,10.25,15.75c0,8.699-4.589,15.75-10.25,15.75"/>
	<circle class="st7" cx="178.346" cy="65.756" r="0.739"/>
	<path class="st4" d="M177.903,90.027c-8.582,0-15.537-10.689-15.537-23.875s6.955-23.875,15.537-23.875"/>
	<path class="st4" d="M177.892,42.277c8.582,0,15.537,10.689,15.537,23.875s-6.955,23.875-15.537,23.875"/>
	<g>
		<g>
			<path class="st6" d="M175.727,50.874c3.187,0.714,5.055,1.216,5.055,1.216"/>
			<path class="st6" d="M180.29,51.958l-0.59-2.024l0.069-0.024l2.534,1.89c0.93,0.483,1.859,0.966,2.789,1.45
				c-1.047-0.048-2.094-0.097-3.141-0.145l-3.14,0.364l-0.051-0.045L180.29,51.958z"/>
		</g>
		<g>
			<path class="st4" d="M175.727,50.874c3.187,0.714,5.055,1.216,5.055,1.216"/>
			<path class="st6" d="M180.536,52.023l-0.295-1.012L180.276,51l1.267,0.944c0.465,0.242,0.93,0.483,1.395,0.725
				c-0.523-0.024-1.047-0.048-1.57-0.072l-1.569,0.182l-0.026-0.023L180.536,52.023z"/>
		</g>
	</g>
	<g>
		<g>
			<line class="st7" x1="178.304" y1="65.422" x2="178.304" y2="87.005"/>
			<path class="st7" d="M178.304,86.597l1.441-0.876l0.032,0.049l-0.934,2.35c-0.18,0.819-0.359,1.638-0.54,2.457
				c-0.18-0.819-0.36-1.638-0.54-2.457l-0.934-2.35l0.024-0.049L178.304,86.597z"/>
		</g>
		<g>
			<line class="st9" x1="178.304" y1="65.422" x2="178.304" y2="87.005"/>
			<path class="st7" d="M178.304,86.903l0.36-0.219l0.008,0.013l-0.233,0.587c-0.045,0.205-0.09,0.409-0.135,0.614
				c-0.045-0.205-0.09-0.409-0.135-0.614l-0.233-0.587l0.006-0.013L178.304,86.903z"/>
		</g>
	</g>
	<g>
		<path d="M186.149,76.781l0.311,0.082c0,0.266-0.1,0.521-0.299,0.768c-0.207,0.266-0.506,0.457-0.896,0.574
			c-0.402,0.121-0.799,0.182-1.189,0.182c-0.344,0-0.668-0.045-0.973-0.135c-0.305-0.082-0.568-0.197-0.791-0.346
			c-0.219-0.125-0.395-0.305-0.527-0.539c-0.129-0.207-0.193-0.447-0.193-0.721c0-0.152,0.039-0.348,0.117-0.586
			c0.09-0.258,0.242-0.455,0.457-0.592c0.242-0.156,0.498-0.271,0.768-0.346c-0.586-0.266-0.918-0.49-0.996-0.674
			c-0.082-0.18-0.129-0.318-0.141-0.416c-0.023-0.09-0.035-0.174-0.035-0.252c0-0.195,0.047-0.389,0.141-0.58
			c0.102-0.199,0.27-0.387,0.504-0.562c0.219-0.172,0.5-0.305,0.844-0.398c0.309-0.078,0.641-0.117,0.996-0.117
			c0.199,0,0.383,0.012,0.551,0.035c0.184,0.027,0.336,0.068,0.457,0.123c0.117,0.051,0.24,0.113,0.369,0.188
			c0.109,0.062,0.217,0.168,0.322,0.316c0.098,0.148,0.146,0.287,0.146,0.416c0,0.121-0.027,0.221-0.082,0.299
			c-0.074,0.102-0.139,0.166-0.193,0.193c-0.07,0.047-0.162,0.07-0.275,0.07c-0.141,0-0.27-0.043-0.387-0.129
			c-0.121-0.082-0.205-0.23-0.252-0.445c-0.059-0.203-0.166-0.359-0.322-0.469c-0.164-0.109-0.352-0.164-0.562-0.164
			c-0.164,0-0.35,0.047-0.557,0.141c-0.219,0.102-0.373,0.258-0.463,0.469c-0.098,0.211-0.146,0.436-0.146,0.674
			c0,0.066,0.02,0.197,0.059,0.393c0.035,0.18,0.148,0.332,0.34,0.457c0.168,0.129,0.391,0.193,0.668,0.193
			c0.113,0,0.186-0.004,0.217-0.012l0.65-0.059c0.18,0,0.307,0.016,0.381,0.047c0.098,0.059,0.146,0.131,0.146,0.217
			c0,0.102-0.072,0.189-0.217,0.264c-0.145,0.07-0.289,0.105-0.434,0.105c-0.027,0-0.1-0.008-0.217-0.023
			c-0.039-0.008-0.075-0.014-0.108-0.018s-0.077-0.01-0.132-0.018c-0.109-0.016-0.205-0.023-0.287-0.023
			c-0.266,0-0.477,0.064-0.633,0.193c-0.156,0.117-0.27,0.277-0.34,0.48c-0.062,0.188-0.094,0.367-0.094,0.539
			c0,0.277,0.072,0.508,0.217,0.691c0.145,0.199,0.361,0.34,0.65,0.422c0.27,0.098,0.557,0.146,0.861,0.146
			c0.16,0,0.336-0.016,0.527-0.047c0.23-0.031,0.43-0.119,0.598-0.264C185.903,77.354,186.052,77.105,186.149,76.781z"/>
	</g>
	<g>
		<g>
			<line class="st7" x1="39.804" y1="65.888" x2="39.804" y2="78.971"/>
			<path class="st7" d="M39.804,78.563l1.441-0.876l0.032,0.049l-0.933,2.35c-0.18,0.819-0.36,1.638-0.54,2.456
				c-0.18-0.819-0.36-1.638-0.541-2.456l-0.933-2.35l0.024-0.049L39.804,78.563z"/>
		</g>
		<g>
			<line class="st9" x1="39.804" y1="65.888" x2="39.804" y2="78.971"/>
			<path class="st7" d="M39.804,78.869l0.36-0.219l0.008,0.013l-0.233,0.587c-0.045,0.205-0.09,0.409-0.135,0.614
				c-0.045-0.205-0.09-0.409-0.135-0.614l-0.233-0.587l0.006-0.013L39.804,78.869z"/>
		</g>
	</g>
	<g>
		<path d="M-0.006,85.252l2.707-3.158l-1.553-3.064H2.32l0.527,1.107c0.195,0.414,0.371,0.811,0.527,1.189l1.793-2.297h1.295
			L3.85,82.176l1.57,3.076H4.248l-0.621-1.266c-0.133-0.27-0.283-0.604-0.451-1.002l-1.852,2.268H-0.006z"/>
	</g>
	<g>
		<path d="M126.84,39.517l4.102-4.342l-2.432-4.248h1.266l1.107,1.945c0.293,0.512,0.461,0.811,0.504,0.896
			c0.102,0.191,0.213,0.42,0.334,0.686c0.289-0.391,0.736-0.904,1.342-1.541l1.887-1.986h1.5l-4.154,4.436l2.355,4.154h-1.248
			l-1.395-2.514c-0.137-0.246-0.295-0.562-0.475-0.949c-0.211,0.285-0.469,0.588-0.773,0.908l-2.396,2.555H126.84z"/>
		<path d="M138.031,42.042c-0.582-0.734-1.074-1.594-1.477-2.578s-0.604-2.004-0.604-3.059c0-0.93,0.15-1.82,0.451-2.672
			c0.352-0.988,0.895-1.973,1.629-2.953h0.756c-0.473,0.812-0.785,1.393-0.938,1.74c-0.238,0.539-0.426,1.102-0.562,1.688
			c-0.168,0.73-0.252,1.465-0.252,2.203c0,1.879,0.584,3.756,1.752,5.631H138.031z"/>
		<path d="M142.098,38.655l-0.176,0.867c-0.254,0.066-0.5,0.1-0.738,0.1c-0.422,0-0.758-0.104-1.008-0.311
			c-0.188-0.156-0.281-0.369-0.281-0.639c0-0.137,0.051-0.451,0.152-0.943l0.756-3.615h-0.838l0.17-0.82h0.838l0.322-1.529
			l1.213-0.732l-0.475,2.262h1.043l-0.176,0.82h-1.037l-0.721,3.439c-0.09,0.438-0.135,0.699-0.135,0.785
			c0,0.125,0.036,0.221,0.108,0.287s0.19,0.1,0.354,0.1C141.705,38.726,141.914,38.702,142.098,38.655z"/>
		<path d="M144.037,42.042h-0.756c1.168-1.875,1.752-3.752,1.752-5.631c0-0.734-0.084-1.463-0.252-2.186
			c-0.133-0.586-0.318-1.148-0.557-1.688c-0.152-0.352-0.467-0.938-0.943-1.758h0.756c0.734,0.98,1.277,1.965,1.629,2.953
			c0.301,0.852,0.451,1.742,0.451,2.672c0,1.055-0.202,2.074-0.606,3.059S144.615,41.308,144.037,42.042z"/>
	</g>
	<line class="st7" x1="33.054" y1="52.09" x2="37.429" y2="56.965"/>
	<g>
		<path d="M8.037,87.502H7.421v-3.92c-0.148,0.141-0.342,0.283-0.583,0.424c-0.241,0.141-0.457,0.247-0.648,0.318v-0.595
			c0.344-0.162,0.645-0.358,0.902-0.588s0.44-0.454,0.547-0.67h0.396V87.502z"/>
	</g>
	<g>
		<path d="M44.631,28.987v0.591h-3.312c-0.004-0.148,0.02-0.291,0.072-0.427c0.084-0.226,0.219-0.448,0.405-0.667
			c0.186-0.219,0.454-0.472,0.805-0.759c0.544-0.447,0.913-0.8,1.104-1.062c0.191-0.261,0.287-0.507,0.287-0.74
			c0-0.244-0.087-0.45-0.262-0.617c-0.174-0.168-0.401-0.251-0.682-0.251c-0.296,0-0.533,0.089-0.711,0.267s-0.268,0.424-0.27,0.738
			l-0.632-0.065c0.043-0.472,0.206-0.831,0.489-1.078c0.283-0.248,0.662-0.371,1.138-0.371c0.481,0,0.861,0.133,1.142,0.4
			s0.42,0.597,0.42,0.991c0,0.201-0.041,0.397-0.123,0.591s-0.218,0.397-0.409,0.612c-0.19,0.214-0.506,0.508-0.948,0.882
			c-0.369,0.31-0.606,0.52-0.711,0.63c-0.105,0.111-0.191,0.222-0.26,0.333H44.631z"/>
	</g>
	<g>
		<path d="M35.036,27.502l2.707-3.158l-1.553-3.064h1.172l0.527,1.107c0.195,0.414,0.371,0.811,0.527,1.189l1.793-2.297h1.295
			l-2.613,3.146l1.57,3.076H39.29l-0.621-1.266c-0.133-0.27-0.283-0.604-0.451-1.002l-1.852,2.268H35.036z"/>
	</g>
	<g>
		<path d="M44.147,71.035l-1.389-1.277c-0.098-0.082-0.182-0.189-0.252-0.322c-0.059-0.09-0.111-0.197-0.158-0.322
			c-0.02-0.047-0.039-0.127-0.059-0.24c-0.016-0.094-0.023-0.162-0.023-0.205c0-0.27,0.107-0.494,0.322-0.674
			c0.043-0.027,0.158-0.115,0.346-0.264c0.082-0.055,0.227-0.105,0.434-0.152c0.25-0.043,0.463-0.064,0.639-0.064
			c0.09,0,0.285,0.01,0.586,0.029c0.215,0.031,0.379,0.059,0.492,0.082c0.129,0.027,0.32,0.104,0.574,0.229
			c0.227,0.117,0.402,0.244,0.527,0.381c0.121,0.145,0.182,0.309,0.182,0.492c0,0.137-0.057,0.25-0.17,0.34
			c-0.121,0.086-0.244,0.129-0.369,0.129c-0.133,0-0.27-0.043-0.41-0.129c-0.156-0.105-0.312-0.242-0.469-0.41
			c-0.059-0.059-0.101-0.103-0.126-0.132s-0.062-0.064-0.108-0.105s-0.085-0.075-0.114-0.103s-0.052-0.047-0.067-0.059
			c-0.105-0.078-0.238-0.141-0.398-0.188c-0.156-0.051-0.301-0.076-0.434-0.076c-0.172,0-0.307,0.029-0.404,0.088
			c-0.125,0.066-0.229,0.143-0.311,0.229c-0.098,0.102-0.146,0.232-0.146,0.393c0,0.09,0.023,0.182,0.07,0.275
			c0.027,0.086,0.127,0.219,0.299,0.398c0.129,0.125,0.434,0.354,0.914,0.686c0.535,0.32,0.828,0.496,0.879,0.527
			c0.109,0.07,0.328,0.234,0.656,0.492c0.281,0.246,0.51,0.514,0.686,0.803c0.172,0.285,0.305,0.572,0.398,0.861
			c0.078,0.277,0.117,0.586,0.117,0.926c0,0.391-0.068,0.764-0.205,1.119c-0.129,0.344-0.312,0.635-0.551,0.873
			c-0.266,0.25-0.498,0.438-0.697,0.562c-0.211,0.148-0.426,0.25-0.645,0.305c-0.191,0.055-0.428,0.082-0.709,0.082
			c-0.387,0-0.73-0.08-1.031-0.24c-0.293-0.145-0.537-0.328-0.732-0.551c-0.199-0.227-0.363-0.486-0.492-0.779
			c-0.152-0.316-0.229-0.678-0.229-1.084c0-0.223,0.031-0.463,0.094-0.721c0.059-0.223,0.195-0.514,0.41-0.873
			c0.199-0.34,0.584-0.66,1.154-0.961c0.105-0.043,0.234-0.096,0.387-0.158s0.275-0.112,0.369-0.149S44.132,71.039,44.147,71.035z
			 M45.601,73.133c-0.07-0.316-0.207-0.633-0.41-0.949c-0.199-0.324-0.422-0.592-0.668-0.803c-0.449,0.094-0.818,0.285-1.107,0.574
			c-0.293,0.293-0.457,0.602-0.492,0.926c-0.047,0.332-0.07,0.615-0.07,0.85c0,0.266,0.031,0.559,0.094,0.879
			c0.07,0.328,0.176,0.604,0.316,0.826c0.156,0.254,0.328,0.422,0.516,0.504c0.164,0.082,0.352,0.123,0.562,0.123
			c0.156,0,0.328-0.045,0.516-0.135c0.168-0.09,0.316-0.217,0.445-0.381c0.129-0.184,0.229-0.4,0.299-0.65
			c0.07-0.254,0.105-0.537,0.105-0.85C45.706,73.746,45.671,73.441,45.601,73.133z"/>
	</g>
</g>
<g>
	<g>
		<path d="M32.554,6.265l0.938-0.088l-0.01,0.249c0,0.277,0.063,0.53,0.19,0.759s0.337,0.407,0.63,0.532s0.641,0.188,1.045,0.188
			c0.573,0,1.01-0.125,1.311-0.376s0.452-0.537,0.452-0.859c0-0.225-0.08-0.43-0.239-0.615c-0.163-0.182-0.607-0.43-1.333-0.742
			c-0.563-0.244-0.947-0.431-1.152-0.562c-0.322-0.211-0.56-0.442-0.713-0.691s-0.229-0.533-0.229-0.852
			c0-0.368,0.101-0.7,0.303-0.996s0.497-0.522,0.886-0.679s0.828-0.234,1.316-0.234c0.583,0,1.074,0.098,1.475,0.293
			s0.691,0.456,0.872,0.781s0.271,0.636,0.271,0.933c0,0.029-0.001,0.078-0.005,0.146l-0.923,0.073c0-0.202-0.018-0.36-0.054-0.474
			c-0.065-0.199-0.166-0.366-0.303-0.503s-0.325-0.247-0.564-0.33s-0.507-0.125-0.803-0.125c-0.521,0-0.926,0.117-1.216,0.352
			c-0.221,0.179-0.332,0.417-0.332,0.713c0,0.176,0.045,0.333,0.137,0.471s0.255,0.274,0.493,0.408
			c0.169,0.094,0.571,0.282,1.206,0.562c0.514,0.228,0.869,0.407,1.064,0.537c0.26,0.172,0.46,0.382,0.601,0.627
			s0.21,0.525,0.21,0.837c0,0.387-0.118,0.745-0.354,1.072s-0.562,0.58-0.979,0.759s-0.894,0.269-1.431,0.269
			c-0.811,0-1.472-0.177-1.985-0.53S32.557,7.183,32.554,6.265z"/>
		<path d="M40.918,7.861l-0.146,0.723c-0.211,0.055-0.417,0.083-0.615,0.083c-0.352,0-0.631-0.086-0.84-0.259
			c-0.156-0.13-0.234-0.308-0.234-0.532c0-0.114,0.042-0.376,0.127-0.786l0.63-3.013h-0.698l0.142-0.684h0.698l0.269-1.274
			l1.011-0.61l-0.396,1.885h0.869l-0.146,0.684h-0.864l-0.601,2.866c-0.075,0.365-0.112,0.583-0.112,0.654
			c0,0.104,0.03,0.184,0.09,0.239s0.159,0.083,0.295,0.083C40.591,7.92,40.765,7.9,40.918,7.861z"/>
		<path d="M45.127,7.935c-0.306,0.264-0.601,0.457-0.884,0.579s-0.586,0.183-0.908,0.183c-0.479,0-0.864-0.141-1.157-0.422
			s-0.439-0.642-0.439-1.082c0-0.29,0.066-0.546,0.198-0.769s0.307-0.402,0.525-0.537s0.485-0.232,0.801-0.291
			c0.199-0.039,0.575-0.07,1.13-0.093s0.953-0.082,1.194-0.176c0.068-0.241,0.103-0.441,0.103-0.601
			c0-0.205-0.075-0.366-0.225-0.483c-0.205-0.163-0.504-0.244-0.898-0.244c-0.371,0-0.675,0.082-0.911,0.247
			s-0.408,0.398-0.515,0.701l-0.894-0.078c0.182-0.514,0.471-0.908,0.867-1.182s0.895-0.41,1.497-0.41
			c0.641,0,1.149,0.153,1.523,0.459c0.287,0.228,0.43,0.524,0.43,0.889c0,0.277-0.041,0.597-0.122,0.962l-0.288,1.289
			c-0.091,0.41-0.137,0.744-0.137,1.001c0,0.163,0.036,0.397,0.107,0.703h-0.894C45.181,8.41,45.146,8.195,45.127,7.935z
			 M45.454,5.952c-0.124,0.049-0.256,0.086-0.398,0.112s-0.378,0.054-0.71,0.083c-0.514,0.045-0.877,0.104-1.089,0.173
			s-0.371,0.182-0.479,0.334s-0.161,0.322-0.161,0.508c0,0.248,0.085,0.451,0.256,0.61s0.414,0.239,0.73,0.239
			c0.293,0,0.575-0.077,0.845-0.232s0.483-0.37,0.64-0.647S45.366,6.463,45.454,5.952z"/>
		<path d="M47.192,8.579l1.494-7.158h0.884l-0.532,2.559c0.28-0.257,0.534-0.438,0.762-0.544s0.466-0.159,0.713-0.159
			c0.485,0,0.89,0.181,1.213,0.542c0.324,0.361,0.486,0.887,0.486,1.577c0,0.459-0.065,0.879-0.195,1.26s-0.291,0.701-0.483,0.959
			s-0.391,0.465-0.596,0.62s-0.415,0.27-0.63,0.347s-0.422,0.115-0.62,0.115c-0.342,0-0.643-0.09-0.903-0.271
			s-0.464-0.457-0.61-0.828l-0.205,0.981H47.192z M48.501,6.45l-0.005,0.166c0,0.443,0.105,0.78,0.317,1.011
			s0.476,0.347,0.791,0.347c0.31,0,0.594-0.108,0.852-0.325c0.26-0.216,0.472-0.554,0.638-1.013s0.249-0.882,0.249-1.27
			c0-0.436-0.105-0.775-0.314-1.016c-0.211-0.241-0.47-0.361-0.779-0.361c-0.319,0-0.612,0.123-0.879,0.369s-0.49,0.624-0.669,1.135
			C48.567,5.874,48.501,6.193,48.501,6.45z"/>
		<path d="M52.72,8.579l1.084-5.186h0.884l-1.084,5.186H52.72z M54.009,2.422l0.21-1.001h0.879l-0.21,1.001H54.009z"/>
		<path d="M54.907,8.579l1.494-7.158h0.884l-1.494,7.158H54.907z"/>
		<path d="M57.163,8.579l1.084-5.186h0.884l-1.084,5.186H57.163z M58.452,2.422l0.21-1.001h0.879l-0.21,1.001H58.452z"/>
		<path d="M61.484,7.861l-0.146,0.723c-0.212,0.055-0.417,0.083-0.615,0.083c-0.352,0-0.632-0.086-0.84-0.259
			c-0.156-0.13-0.234-0.308-0.234-0.532c0-0.114,0.042-0.376,0.127-0.786l0.63-3.013h-0.698l0.142-0.684h0.698l0.269-1.274
			l1.011-0.61l-0.396,1.885H62.3l-0.146,0.684h-0.864l-0.601,2.866c-0.075,0.365-0.112,0.583-0.112,0.654
			c0,0.104,0.03,0.184,0.091,0.239c0.06,0.055,0.158,0.083,0.295,0.083C61.157,7.92,61.331,7.9,61.484,7.861z"/>
		<path d="M61.865,10.581l0.054-0.83c0.183,0.052,0.359,0.078,0.532,0.078c0.179,0,0.324-0.041,0.435-0.122
			c0.144-0.107,0.3-0.309,0.469-0.605l0.283-0.508l-0.864-5.2h0.869l0.391,2.622c0.078,0.518,0.145,1.035,0.2,1.553l2.319-4.175
			h0.923L64.17,9.268c-0.319,0.573-0.603,0.952-0.85,1.138s-0.532,0.278-0.854,0.278C62.261,10.684,62.061,10.649,61.865,10.581z"/>
		<path d="M69.941,8.579l1.084-5.186h0.884l-1.084,5.186H69.941z M71.23,2.422l0.21-1.001h0.879l-0.21,1.001H71.23z"/>
		<path d="M72.197,8.579l1.084-5.186h0.801l-0.19,0.903c0.349-0.355,0.674-0.614,0.977-0.776s0.612-0.244,0.928-0.244
			c0.42,0,0.75,0.114,0.988,0.342c0.24,0.228,0.359,0.532,0.359,0.913c0,0.192-0.042,0.495-0.127,0.908l-0.659,3.14h-0.884
			l0.688-3.286c0.068-0.319,0.103-0.555,0.103-0.708c0-0.172-0.06-0.312-0.178-0.42c-0.119-0.107-0.291-0.161-0.516-0.161
			c-0.452,0-0.855,0.163-1.209,0.488c-0.353,0.326-0.612,0.884-0.778,1.675l-0.503,2.412H72.197z"/>
		<path d="M82.603,7.861l-0.146,0.723c-0.212,0.055-0.417,0.083-0.615,0.083c-0.352,0-0.632-0.086-0.84-0.259
			c-0.156-0.13-0.234-0.308-0.234-0.532c0-0.114,0.042-0.376,0.127-0.786l0.63-3.013h-0.698l0.142-0.684h0.698l0.269-1.274
			l1.011-0.61l-0.396,1.885h0.869l-0.146,0.684h-0.864l-0.601,2.866c-0.075,0.365-0.112,0.583-0.112,0.654
			c0,0.104,0.03,0.184,0.09,0.239c0.061,0.055,0.159,0.083,0.296,0.083C82.275,7.92,82.449,7.9,82.603,7.861z"/>
		<path d="M83.315,8.579l1.494-7.158h0.884L85.122,4.17c0.329-0.319,0.635-0.548,0.918-0.686s0.574-0.208,0.874-0.208
			c0.43,0,0.764,0.113,1.001,0.339s0.356,0.525,0.356,0.896c0,0.182-0.052,0.518-0.156,1.006l-0.64,3.062h-0.884l0.659-3.14
			c0.095-0.456,0.142-0.742,0.142-0.859c0-0.169-0.059-0.308-0.176-0.415s-0.286-0.161-0.508-0.161
			c-0.319,0-0.623,0.084-0.913,0.251s-0.517,0.397-0.682,0.688C84.95,5.235,84.8,5.705,84.663,6.353l-0.464,2.227H83.315z"/>
		<path d="M92.686,6.816l0.859,0.088c-0.124,0.426-0.407,0.832-0.853,1.216c-0.443,0.384-0.974,0.576-1.589,0.576
			c-0.384,0-0.736-0.089-1.058-0.266c-0.32-0.177-0.564-0.436-0.732-0.774c-0.167-0.338-0.251-0.724-0.251-1.157
			c0-0.566,0.131-1.116,0.394-1.648c0.262-0.532,0.601-0.928,1.018-1.187s0.867-0.388,1.353-0.388c0.618,0,1.112,0.192,1.481,0.576
			c0.37,0.384,0.555,0.908,0.555,1.572c0,0.254-0.022,0.514-0.068,0.781h-3.818c-0.013,0.101-0.02,0.192-0.02,0.273
			c0,0.485,0.111,0.855,0.334,1.111c0.224,0.255,0.496,0.383,0.818,0.383c0.303,0,0.601-0.099,0.894-0.298
			S92.522,7.191,92.686,6.816z M90.117,5.532h2.91c0.003-0.091,0.005-0.156,0.005-0.195c0-0.443-0.11-0.782-0.332-1.018
			s-0.506-0.354-0.854-0.354c-0.378,0-0.722,0.13-1.032,0.391C90.502,4.616,90.271,5.008,90.117,5.532z"/>
		<path d="M97.3,6.807l0.884-0.054c0,0.254,0.039,0.47,0.117,0.649s0.222,0.326,0.433,0.439c0.209,0.114,0.454,0.171,0.734,0.171
			c0.391,0,0.684-0.078,0.879-0.234s0.293-0.34,0.293-0.552c0-0.153-0.059-0.298-0.176-0.435c-0.12-0.137-0.414-0.305-0.881-0.505
			c-0.468-0.2-0.767-0.341-0.896-0.422c-0.218-0.133-0.383-0.291-0.493-0.471s-0.166-0.388-0.166-0.623
			c0-0.41,0.163-0.762,0.488-1.055s0.781-0.439,1.367-0.439c0.651,0,1.146,0.15,1.487,0.452c0.34,0.301,0.517,0.697,0.529,1.189
			l-0.864,0.059c-0.013-0.312-0.124-0.56-0.332-0.742S100.2,3.96,99.819,3.96c-0.306,0-0.544,0.07-0.713,0.21
			s-0.254,0.292-0.254,0.454s0.073,0.306,0.22,0.43c0.098,0.084,0.35,0.215,0.757,0.391c0.677,0.293,1.104,0.524,1.279,0.693
			c0.28,0.27,0.42,0.599,0.42,0.986c0,0.257-0.079,0.509-0.236,0.757c-0.158,0.248-0.399,0.445-0.723,0.593
			c-0.324,0.148-0.706,0.222-1.146,0.222c-0.599,0-1.108-0.148-1.528-0.444S97.277,7.474,97.3,6.807z"/>
		<path d="M106.025,6.816l0.859,0.088c-0.124,0.426-0.407,0.832-0.853,1.216c-0.443,0.384-0.974,0.576-1.589,0.576
			c-0.384,0-0.736-0.089-1.058-0.266c-0.32-0.177-0.564-0.436-0.732-0.774c-0.167-0.338-0.251-0.724-0.251-1.157
			c0-0.566,0.131-1.116,0.394-1.648c0.262-0.532,0.601-0.928,1.018-1.187s0.867-0.388,1.353-0.388c0.618,0,1.112,0.192,1.481,0.576
			c0.37,0.384,0.555,0.908,0.555,1.572c0,0.254-0.022,0.514-0.068,0.781h-3.818c-0.013,0.101-0.02,0.192-0.02,0.273
			c0,0.485,0.111,0.855,0.334,1.111c0.224,0.255,0.496,0.383,0.818,0.383c0.303,0,0.601-0.099,0.894-0.298
			S105.862,7.191,106.025,6.816z M103.457,5.532h2.91c0.003-0.091,0.005-0.156,0.005-0.195c0-0.443-0.11-0.782-0.332-1.018
			s-0.506-0.354-0.854-0.354c-0.378,0-0.722,0.13-1.032,0.391C103.842,4.616,103.61,5.008,103.457,5.532z"/>
		<path d="M107.778,8.579l1.084-5.186h0.801l-0.19,0.903c0.349-0.355,0.674-0.614,0.977-0.776s0.612-0.244,0.928-0.244
			c0.42,0,0.749,0.114,0.989,0.342c0.238,0.228,0.358,0.532,0.358,0.913c0,0.192-0.042,0.495-0.127,0.908l-0.659,3.14h-0.884
			l0.688-3.286c0.068-0.319,0.103-0.555,0.103-0.708c0-0.172-0.06-0.312-0.179-0.42c-0.118-0.107-0.29-0.161-0.515-0.161
			c-0.452,0-0.855,0.163-1.208,0.488c-0.354,0.326-0.613,0.884-0.779,1.675l-0.503,2.412H107.778z"/>
		<path d="M113.423,6.807l0.884-0.054c0,0.254,0.039,0.47,0.117,0.649s0.222,0.326,0.433,0.439c0.209,0.114,0.454,0.171,0.734,0.171
			c0.391,0,0.684-0.078,0.879-0.234s0.293-0.34,0.293-0.552c0-0.153-0.059-0.298-0.176-0.435c-0.12-0.137-0.414-0.305-0.881-0.505
			c-0.468-0.2-0.767-0.341-0.896-0.422c-0.218-0.133-0.383-0.291-0.493-0.471s-0.166-0.388-0.166-0.623
			c0-0.41,0.163-0.762,0.488-1.055s0.781-0.439,1.367-0.439c0.651,0,1.146,0.15,1.487,0.452c0.34,0.301,0.517,0.697,0.529,1.189
			l-0.864,0.059c-0.013-0.312-0.124-0.56-0.332-0.742s-0.503-0.273-0.884-0.273c-0.306,0-0.544,0.07-0.713,0.21
			s-0.254,0.292-0.254,0.454s0.073,0.306,0.22,0.43c0.098,0.084,0.35,0.215,0.757,0.391c0.677,0.293,1.104,0.524,1.279,0.693
			c0.28,0.27,0.42,0.599,0.42,0.986c0,0.257-0.079,0.509-0.236,0.757c-0.158,0.248-0.399,0.445-0.723,0.593
			c-0.324,0.148-0.706,0.222-1.146,0.222c-0.599,0-1.108-0.148-1.528-0.444S113.4,7.474,113.423,6.807z"/>
		<path d="M122.148,6.816l0.859,0.088c-0.124,0.426-0.407,0.832-0.853,1.216c-0.443,0.384-0.974,0.576-1.589,0.576
			c-0.384,0-0.736-0.089-1.058-0.266c-0.32-0.177-0.564-0.436-0.732-0.774c-0.167-0.338-0.251-0.724-0.251-1.157
			c0-0.566,0.131-1.116,0.394-1.648c0.262-0.532,0.601-0.928,1.018-1.187s0.867-0.388,1.353-0.388c0.618,0,1.112,0.192,1.481,0.576
			c0.37,0.384,0.555,0.908,0.555,1.572c0,0.254-0.022,0.514-0.068,0.781h-3.818c-0.013,0.101-0.02,0.192-0.02,0.273
			c0,0.485,0.111,0.855,0.334,1.111c0.224,0.255,0.496,0.383,0.818,0.383c0.303,0,0.601-0.099,0.894-0.298
			S121.985,7.191,122.148,6.816z M119.58,5.532h2.91c0.003-0.091,0.005-0.156,0.005-0.195c0-0.443-0.11-0.782-0.332-1.018
			s-0.506-0.354-0.854-0.354c-0.378,0-0.722,0.13-1.032,0.391C119.965,4.616,119.733,5.008,119.58,5.532z"/>
		<path d="M126.836,6.611c0-1.012,0.298-1.851,0.894-2.515c0.491-0.547,1.136-0.82,1.934-0.82c0.625,0,1.129,0.195,1.512,0.586
			c0.382,0.391,0.573,0.918,0.573,1.582c0,0.596-0.12,1.15-0.361,1.663s-0.583,0.906-1.028,1.179
			c-0.443,0.273-0.912,0.41-1.403,0.41c-0.403,0-0.771-0.086-1.101-0.259c-0.331-0.172-0.583-0.417-0.758-0.732
			C126.923,7.389,126.836,7.025,126.836,6.611z M127.72,6.523c0,0.488,0.117,0.858,0.352,1.111s0.532,0.378,0.894,0.378
			c0.188,0,0.376-0.038,0.562-0.115s0.358-0.193,0.518-0.349s0.295-0.334,0.408-0.535c0.111-0.2,0.202-0.416,0.271-0.647
			c0.101-0.322,0.151-0.631,0.151-0.928c0-0.469-0.118-0.833-0.354-1.091c-0.236-0.259-0.533-0.388-0.892-0.388
			c-0.276,0-0.529,0.066-0.757,0.198s-0.434,0.325-0.617,0.579c-0.185,0.254-0.319,0.549-0.406,0.886
			C127.763,5.959,127.72,6.26,127.72,6.523z"/>
		<path d="M132.363,8.579l0.942-4.502h-0.791l0.142-0.684h0.791l0.151-0.737c0.078-0.368,0.158-0.633,0.242-0.796
			c0.082-0.163,0.218-0.297,0.404-0.403c0.188-0.106,0.442-0.159,0.765-0.159c0.225,0,0.55,0.047,0.977,0.142l-0.161,0.771
			c-0.3-0.078-0.55-0.117-0.752-0.117c-0.173,0-0.304,0.043-0.393,0.129c-0.09,0.086-0.167,0.291-0.232,0.613l-0.117,0.557h0.986
			l-0.142,0.684h-0.986l-0.942,4.502H132.363z"/>
		<path d="M137.866,8.579l1.494-7.158h0.957l-1.323,6.348h3.716l-0.171,0.811H137.866z"/>
		<path d="M142.847,10.581l0.054-0.83c0.183,0.052,0.359,0.078,0.532,0.078c0.179,0,0.324-0.041,0.435-0.122
			c0.144-0.107,0.3-0.309,0.469-0.605l0.283-0.508l-0.864-5.2h0.869l0.391,2.622c0.078,0.518,0.145,1.035,0.2,1.553l2.319-4.175
			h0.923l-3.306,5.874c-0.319,0.573-0.603,0.952-0.85,1.138s-0.532,0.278-0.854,0.278C143.242,10.684,143.042,10.649,142.847,10.581
			z"/>
		<path d="M151.675,7.935c-0.306,0.264-0.601,0.457-0.884,0.579s-0.586,0.183-0.908,0.183c-0.479,0-0.864-0.141-1.157-0.422
			s-0.439-0.642-0.439-1.082c0-0.29,0.066-0.546,0.197-0.769c0.133-0.223,0.308-0.402,0.525-0.537s0.485-0.232,0.801-0.291
			c0.198-0.039,0.575-0.07,1.131-0.093c0.555-0.023,0.952-0.082,1.193-0.176c0.068-0.241,0.103-0.441,0.103-0.601
			c0-0.205-0.075-0.366-0.225-0.483c-0.205-0.163-0.505-0.244-0.898-0.244c-0.371,0-0.675,0.082-0.911,0.247
			c-0.235,0.165-0.407,0.398-0.515,0.701l-0.894-0.078c0.183-0.514,0.471-0.908,0.867-1.182c0.395-0.273,0.894-0.41,1.496-0.41
			c0.642,0,1.149,0.153,1.523,0.459c0.286,0.228,0.43,0.524,0.43,0.889c0,0.277-0.041,0.597-0.122,0.962L152.7,6.875
			c-0.091,0.41-0.137,0.744-0.137,1.001c0,0.163,0.036,0.397,0.107,0.703h-0.894C151.729,8.41,151.694,8.195,151.675,7.935z
			 M152.002,5.952c-0.124,0.049-0.257,0.086-0.397,0.112c-0.143,0.026-0.379,0.054-0.711,0.083
			c-0.515,0.045-0.877,0.104-1.089,0.173s-0.371,0.182-0.479,0.334s-0.161,0.322-0.161,0.508c0,0.248,0.086,0.451,0.256,0.61
			c0.172,0.16,0.415,0.239,0.73,0.239c0.293,0,0.574-0.077,0.845-0.232s0.483-0.37,0.64-0.647S151.914,6.463,152.002,5.952z"/>
		<path d="M153.306,10.566l1.499-7.173h0.815l-0.151,0.723c0.303-0.316,0.573-0.535,0.813-0.657
			c0.238-0.122,0.492-0.183,0.759-0.183c0.495,0,0.905,0.18,1.23,0.54s0.488,0.875,0.488,1.545c0,0.541-0.09,1.033-0.269,1.477
			s-0.398,0.802-0.659,1.072s-0.524,0.469-0.791,0.596s-0.54,0.19-0.82,0.19c-0.622,0-1.104-0.316-1.445-0.947l-0.586,2.817H153.306
			z M155.054,6.46c0,0.387,0.027,0.656,0.083,0.806c0.081,0.211,0.215,0.382,0.4,0.513s0.4,0.195,0.645,0.195
			c0.508,0,0.918-0.286,1.23-0.857s0.469-1.155,0.469-1.75c0-0.439-0.104-0.779-0.315-1.018c-0.209-0.239-0.471-0.359-0.783-0.359
			c-0.225,0-0.433,0.06-0.625,0.178s-0.37,0.296-0.535,0.532c-0.164,0.236-0.3,0.525-0.407,0.867S155.054,6.206,155.054,6.46z"/>
		<path d="M162.842,7.642c-0.622,0.703-1.258,1.055-1.909,1.055c-0.4,0-0.724-0.115-0.969-0.344
			c-0.246-0.229-0.369-0.51-0.369-0.842c0-0.218,0.056-0.592,0.166-1.123l0.625-2.993h0.884l-0.693,3.315
			c-0.059,0.277-0.088,0.492-0.088,0.645c0,0.195,0.06,0.348,0.179,0.457c0.118,0.109,0.293,0.164,0.524,0.164
			c0.247,0,0.489-0.06,0.726-0.181c0.235-0.121,0.439-0.283,0.609-0.488c0.172-0.205,0.311-0.448,0.418-0.728
			c0.071-0.179,0.154-0.493,0.249-0.942l0.469-2.241h0.884l-1.084,5.186h-0.815L162.842,7.642z"/>
		<path d="M164.863,8.579l1.084-5.186h0.801l-0.19,0.903c0.349-0.355,0.674-0.614,0.977-0.776s0.612-0.244,0.928-0.244
			c0.42,0,0.75,0.114,0.988,0.342c0.24,0.228,0.359,0.532,0.359,0.913c0,0.192-0.042,0.495-0.127,0.908l-0.659,3.14h-0.884
			l0.688-3.286c0.068-0.319,0.103-0.555,0.103-0.708c0-0.172-0.06-0.312-0.178-0.42c-0.119-0.107-0.291-0.161-0.516-0.161
			c-0.452,0-0.855,0.163-1.209,0.488c-0.353,0.326-0.612,0.884-0.778,1.675l-0.503,2.412H164.863z"/>
		<path d="M170.581,6.611c0-1.012,0.298-1.851,0.894-2.515c0.491-0.547,1.136-0.82,1.934-0.82c0.625,0,1.129,0.195,1.511,0.586
			c0.383,0.391,0.574,0.918,0.574,1.582c0,0.596-0.12,1.15-0.361,1.663s-0.584,0.906-1.027,1.179
			c-0.445,0.273-0.913,0.41-1.404,0.41c-0.403,0-0.771-0.086-1.102-0.259c-0.33-0.172-0.582-0.417-0.756-0.732
			C170.668,7.389,170.581,7.025,170.581,6.611z M171.465,6.523c0,0.488,0.117,0.858,0.352,1.111s0.532,0.378,0.894,0.378
			c0.188,0,0.376-0.038,0.562-0.115s0.358-0.193,0.518-0.349s0.296-0.334,0.407-0.535c0.113-0.2,0.203-0.416,0.271-0.647
			c0.101-0.322,0.151-0.631,0.151-0.928c0-0.469-0.118-0.833-0.354-1.091c-0.235-0.259-0.532-0.388-0.891-0.388
			c-0.276,0-0.529,0.066-0.757,0.198s-0.434,0.325-0.618,0.579c-0.184,0.254-0.318,0.549-0.404,0.886
			C171.508,5.959,171.465,6.26,171.465,6.523z"/>
		<path d="M177.295,8.579l-0.85-5.186h0.859l0.444,2.856c0.049,0.312,0.109,0.822,0.181,1.528c0.169-0.368,0.386-0.79,0.649-1.265
			l1.733-3.12h0.933l-2.969,5.186H177.295z"/>
	</g>
	<g>
	</g>
</g>
</svg>
